<?xml version="1.0" encoding="UTF-8"?>
<svg width="249px" height="41px" viewBox="0 0 249 41" version="1.1" xmlns="http://www.w3.org/2000/svg" xmlns:xlink="http://www.w3.org/1999/xlink">
    <!-- Generator: Sketch 52.6 (67491) - http://www.bohemiancoding.com/sketch -->
    <title>Group 15</title>
    <desc>Created with Sketch.</desc>
    <g id="Random" stroke="none" stroke-width="1" fill="none" fill-rule="evenodd">
        <g id="Artboard-3" transform="translate(-238.000000, -2618.000000)">
            <g id="Group-15" transform="translate(238.000000, 2618.000000)">
                <path d="M42.2752294,32.1100917 C41.7370004,32.1100917 41.2844055,31.9266073 40.9174312,31.559633 C40.5504569,31.1926587 40.3669725,30.7400639 40.3669725,30.2018349 L40.3669725,5.35779817 C40.3669725,4.79510422 40.5504569,4.33639321 40.9174312,3.98165138 C41.2844055,3.62690954 41.7370004,3.44954128 42.2752294,3.44954128 C42.8379233,3.44954128 43.2966343,3.62690954 43.6513761,3.98165138 C44.006118,4.33639321 44.1834862,4.79510422 44.1834862,5.35779817 L44.1834862,15.8899083 L61.2110092,15.8899083 L61.2110092,5.35779817 C61.2110092,4.79510422 61.3944936,4.33639321 61.7614679,3.98165138 C62.1284422,3.62690954 62.5810371,3.44954128 63.1192661,3.44954128 C63.657495,3.44954128 64.1039738,3.62690954 64.4587156,3.98165138 C64.8134574,4.33639321 64.9908257,4.79510422 64.9908257,5.35779817 L64.9908257,30.2018349 C64.9908257,30.7645288 64.8134574,31.2232398 64.4587156,31.5779817 C64.1039738,31.9327235 63.657495,32.1100917 63.1192661,32.1100917 C62.5810371,32.1100917 62.1284422,31.9266073 61.7614679,31.559633 C61.3944936,31.1926587 61.2110092,30.7400639 61.2110092,30.2018349 L61.2110092,19.266055 L44.1834862,19.266055 L44.1834862,30.2018349 C44.1834862,30.7400639 44.006118,31.1926587 43.6513761,31.559633 C43.2966343,31.9266073 42.8379233,32.1100917 42.2752294,32.1100917 Z M86.4495413,12 C87.0122353,12 87.4648301,12.1712521 87.8073395,12.5137615 C88.1498489,12.8562708 88.321101,13.3088657 88.321101,13.8715596 L88.321101,30.2385321 C88.321101,30.7767611 88.1498489,31.2232398 87.8073395,31.5779817 C87.4648301,31.9327235 87.0122353,32.1100917 86.4495413,32.1100917 C85.9113123,32.1100917 85.4648336,31.9327235 85.1100918,31.5779817 C84.75535,31.2232398 84.5779817,30.7767611 84.5779817,30.2385321 L84.5779817,29.8348624 C83.7951032,30.6177409 82.8654489,31.2232394 81.7889909,31.6513761 C80.7125329,32.0795128 79.5626973,32.293578 78.3394496,32.293578 C76.6513678,32.293578 75.1345634,31.9266092 73.7889909,31.1926606 C72.4434184,30.4587119 71.3914412,29.3883862 70.6330276,27.9816514 C69.874614,26.5749165 69.4954129,24.8807439 69.4954129,22.8990826 L69.4954129,13.8715596 C69.4954129,13.3333306 69.6727812,12.8868519 70.027523,12.5321101 C70.3822648,12.1773683 70.8287435,12 71.3669725,12 C71.9052015,12 72.3516802,12.1773683 72.7064221,12.5321101 C73.0611639,12.8868519 73.2385322,13.3333306 73.2385322,13.8715596 L73.2385322,22.8990826 C73.2385322,24.8807439 73.7706369,26.3791998 74.8348624,27.3944954 C75.8990879,28.409791 77.3119179,28.9174312 79.0733946,28.9174312 C80.1009226,28.9174312 81.0366931,28.7094822 81.880734,28.293578 C82.7247749,27.8776738 83.3853188,27.3149883 83.8623854,26.6055046 C84.339452,25.8960209 84.5779817,25.1009218 84.5779817,24.2201835 L84.5779817,13.8715596 C84.5779817,13.3088657 84.75535,12.8562708 85.1100918,12.5137615 C85.4648336,12.1712521 85.9113123,12 86.4495413,12 Z M103.688074,11.8899083 C105.44955,11.8899083 107.045865,12.3302708 108.477064,13.2110092 C109.908264,14.0917475 111.033635,15.3088607 111.853211,16.8623853 C112.672787,18.4159099 113.082569,20.1467794 113.082569,22.0550459 C113.082569,23.9633123 112.642206,25.6941818 111.761468,27.2477064 C110.88073,28.801231 109.663616,30.0244604 108.110092,30.9174312 C106.556567,31.810402 104.83793,32.2568807 102.954129,32.2568807 C101.070327,32.2568807 99.3639221,31.810402 97.8348625,30.9174312 C96.3058029,30.0244604 95.0948058,28.801231 94.201835,27.2477064 C93.3088641,25.6941818 92.8623854,23.9633123 92.8623854,22.0550459 L92.8623854,5.32110092 C92.8623854,4.75840697 93.0397537,4.30581211 93.3944955,3.96330275 C93.7492374,3.62079339 94.1957161,3.44954128 94.7339451,3.44954128 C95.296639,3.44954128 95.7492339,3.62079339 96.0917432,3.96330275 C96.4342526,4.30581211 96.6055047,4.75840697 96.6055047,5.32110092 L96.6055047,15.2293578 C97.4617781,14.1773648 98.501523,13.3578011 99.7247708,12.7706422 C100.948018,12.1834833 102.269106,11.8899083 103.688074,11.8899083 Z M102.954129,28.9541284 C104.177376,28.9541284 105.284399,28.6544372 106.275229,28.0550459 C107.26606,27.4556545 108.048927,26.6299747 108.623853,25.5779817 C109.19878,24.5259886 109.486239,23.3516884 109.486239,22.0550459 C109.486239,20.7584033 109.19878,19.5902193 108.623853,18.5504587 C108.048927,17.5106982 107.26606,16.6911345 106.275229,16.0917431 C105.284399,15.4923517 104.177376,15.1926606 102.954129,15.1926606 C101.730881,15.1926606 100.623858,15.4923517 99.6330276,16.0917431 C98.642197,16.6911345 97.8654463,17.5106982 97.3027524,18.5504587 C96.7400585,19.5902193 96.4587157,20.7584033 96.4587157,22.0550459 C96.4587157,23.3516884 96.7400585,24.5259886 97.3027524,25.5779817 C97.8654463,26.6299747 98.642197,27.4556545 99.6330276,28.0550459 C100.623858,28.6544372 101.730881,28.9541284 102.954129,28.9541284 Z M123.899083,32.2568807 C122.235466,32.2568807 120.669732,32.0000026 119.201835,31.4862385 C117.733938,30.9724745 116.584102,30.2996983 115.752294,29.4678899 C115.434249,29.1498455 115.27523,28.7706444 115.27523,28.3302752 C115.27523,27.7431163 115.519875,27.2660569 116.009174,26.8990826 C116.474009,26.5565732 116.902139,26.3853211 117.293578,26.3853211 C117.782877,26.3853211 118.247704,26.6055024 118.688074,27.0458716 C119.152908,27.5596356 119.850148,28.0061143 120.779817,28.3853211 C121.709485,28.7645279 122.700301,28.9541284 123.752294,28.9541284 C125.146796,28.9541284 126.229354,28.7217149 127,28.2568807 C127.770646,27.7920466 128.155963,27.1681996 128.155963,26.3853211 C128.155963,25.6269075 127.776762,24.9969444 127.018349,24.4954128 C126.259935,23.9938813 124.975544,23.5718672 123.165138,23.2293578 C118.467867,22.3241545 116.119266,20.3914521 116.119266,17.4311927 C116.119266,16.2324099 116.474003,15.2171295 117.183486,14.3853211 C117.89297,13.5535127 118.822624,12.9296657 119.972477,12.5137615 C121.12233,12.0978572 122.345559,11.8899083 123.642202,11.8899083 C125.232424,11.8899083 126.657486,12.1467864 127.917431,12.6605505 C129.177376,13.1743145 130.174308,13.8837875 130.908257,14.7889908 C131.226301,15.1804301 131.385321,15.5718635 131.385321,15.9633028 C131.385321,16.379207 131.177372,16.7584081 130.761468,17.1009174 C130.492354,17.2966371 130.149849,17.3944954 129.733945,17.3944954 C129.097856,17.3944954 128.522939,17.1620818 128.009174,16.6972477 C127.397551,16.1345538 126.749239,15.7370042 126.06422,15.5045872 C125.379202,15.2721701 124.547406,15.1559633 123.568808,15.1559633 C122.44342,15.1559633 121.519881,15.3455639 120.798165,15.7247706 C120.076449,16.1039774 119.715596,16.6360822 119.715596,17.3211009 C119.715596,17.8104 119.837919,18.2201818 120.082569,18.5504587 C120.327219,18.8807356 120.792046,19.1865429 121.477064,19.4678899 C122.162083,19.7492369 123.152899,20.0244635 124.449541,20.293578 C127.116221,20.831807 129.006111,21.5779769 130.119266,22.5321101 C131.232422,23.4862433 131.788991,24.721705 131.788991,26.2385321 C131.788991,27.36392 131.483184,28.3853165 130.87156,29.3027523 C130.259936,30.2201881 129.360862,30.9418934 128.174312,31.4678899 C126.987762,31.9938864 125.5627,32.2568807 123.899083,32.2568807 Z M144.550459,11.8899083 C146.43426,11.8899083 148.152898,12.336387 149.706422,13.2293578 C151.259947,14.1223286 152.47706,15.345558 153.357798,16.8990826 C154.238537,18.4526072 154.678899,20.1834767 154.678899,22.0917431 C154.678899,24.0000095 154.269117,25.7308791 153.449542,27.2844037 C152.629966,28.8379283 151.504595,30.0550415 150.073395,30.9357798 C148.642195,31.8165182 147.045881,32.2568807 145.284404,32.2568807 C143.865437,32.2568807 142.544349,31.9633057 141.321101,31.3761468 C140.097853,30.7889879 139.058108,29.9694242 138.201835,28.9174312 L138.201835,38.8256881 C138.201835,39.388382 138.030583,39.8409769 137.688074,40.1834862 C137.345564,40.5259956 136.892969,40.6972477 136.330275,40.6972477 C135.792046,40.6972477 135.345568,40.5259956 134.990826,40.1834862 C134.636084,39.8409769 134.458716,39.388382 134.458716,38.8256881 L134.458716,22.0917431 C134.458716,20.1834767 134.905195,18.4526072 135.798165,16.8990826 C136.691136,15.345558 137.902133,14.1223286 139.431193,13.2293578 C140.960253,12.336387 142.666657,11.8899083 144.550459,11.8899083 Z M144.550459,28.9541284 C145.773707,28.9541284 146.880729,28.6544372 147.87156,28.0550459 C148.86239,27.4556545 149.645257,26.6360908 150.220184,25.5963303 C150.79511,24.5565697 151.082569,23.3883857 151.082569,22.0917431 C151.082569,20.7951006 150.79511,19.6208004 150.220184,18.5688073 C149.645257,17.5168143 148.86239,16.6911345 147.87156,16.0917431 C146.880729,15.4923517 145.773707,15.1926606 144.550459,15.1926606 C143.327211,15.1926606 142.220189,15.4923517 141.229358,16.0917431 C140.238527,16.6911345 139.461777,17.5168143 138.899083,18.5688073 C138.336389,19.6208004 138.055046,20.7951006 138.055046,22.0917431 C138.055046,23.3883857 138.336389,24.5565697 138.899083,25.5963303 C139.461777,26.6360908 140.238527,27.4556545 141.229358,28.0550459 C142.220189,28.6544372 143.327211,28.9541284 144.550459,28.9541284 Z M167.293578,32.2568807 C165.336382,32.2568807 163.587164,31.8226343 162.045872,30.9541284 C160.50458,30.0856226 159.305815,28.8807417 158.449542,27.3394495 C157.593268,25.7981574 157.165138,24.0489394 157.165138,22.0917431 C157.165138,20.1100818 157.593268,18.3486316 158.449542,16.8073394 C159.305815,15.2660473 160.50458,14.0611664 162.045872,13.1926606 C163.587164,12.3241547 165.336382,11.8899083 167.293578,11.8899083 C169.22631,11.8899083 170.957179,12.3241547 172.486239,13.1926606 C174.015298,14.0611664 175.214063,15.2660473 176.082569,16.8073394 C176.951075,18.3486316 177.385321,20.1100818 177.385321,22.0917431 C177.385321,24.0489394 176.957191,25.7981574 176.100918,27.3394495 C175.244644,28.8807417 174.051996,30.0856226 172.522936,30.9541284 C170.993876,31.8226343 169.250775,32.2568807 167.293578,32.2568807 Z M167.293578,28.9541284 C168.541291,28.9541284 169.660546,28.6605534 170.651376,28.0733945 C171.642207,27.4862356 172.412842,26.6727881 172.963303,25.6330275 C173.513764,24.593267 173.788991,23.4128506 173.788991,22.0917431 C173.788991,20.7706356 173.513764,19.5841031 172.963303,18.5321101 C172.412842,17.4801171 171.642207,16.6605534 170.651376,16.0733945 C169.660546,15.4862356 168.541291,15.1926606 167.293578,15.1926606 C166.045866,15.1926606 164.926611,15.4862356 163.93578,16.0733945 C162.944949,16.6605534 162.168199,17.4801171 161.605505,18.5321101 C161.042811,19.5841031 160.761468,20.7706356 160.761468,22.0917431 C160.761468,23.4128506 161.042811,24.593267 161.605505,25.6330275 C162.168199,26.6727881 162.944949,27.4862356 163.93578,28.0733945 C164.926611,28.6605534 166.045866,28.9541284 167.293578,28.9541284 Z M189.449542,28.440367 C189.889911,28.440367 190.262996,28.6116191 190.568808,28.9541284 C190.87462,29.2966378 191.027523,29.7370004 191.027523,30.2752294 C191.027523,30.8134583 190.82569,31.2538209 190.422019,31.5963303 C190.018347,31.9388396 189.498474,32.1100917 188.862386,32.1100917 L188.201835,32.1100917 C187.003052,32.1100917 185.908262,31.7981683 184.917432,31.1743119 C183.926601,30.5504556 183.14985,29.7003112 182.587156,28.6238532 C182.024462,27.5473952 181.74312,26.3363982 181.74312,24.9908257 L181.74312,15.9266055 L180.055046,15.9266055 C179.541282,15.9266055 179.125384,15.779818 178.80734,15.4862385 C178.489295,15.1926591 178.330276,14.8256903 178.330276,14.3853211 C178.330276,13.896022 178.489295,13.5045886 178.80734,13.2110092 C179.125384,12.9174297 179.541282,12.7706422 180.055046,12.7706422 L181.74312,12.7706422 L181.74312,7.48623853 C181.74312,6.94800954 181.914372,6.50764697 182.256881,6.16513761 C182.59939,5.82262826 183.039753,5.65137615 183.577982,5.65137615 C184.116211,5.65137615 184.556574,5.82262826 184.899083,6.16513761 C185.241592,6.50764697 185.412844,6.94800954 185.412844,7.48623853 L185.412844,12.7706422 L188.53211,12.7706422 C189.045874,12.7706422 189.461772,12.9174297 189.779817,13.2110092 C190.097861,13.5045886 190.256881,13.896022 190.256881,14.3853211 C190.256881,14.8256903 190.097861,15.1926591 189.779817,15.4862385 C189.461772,15.779818 189.045874,15.9266055 188.53211,15.9266055 L185.412844,15.9266055 L185.412844,24.9908257 C185.412844,25.9694239 185.681955,26.7889875 186.220184,27.4495413 C186.758413,28.110095 187.418957,28.440367 188.201835,28.440367 L189.449542,28.440367 Z" id="Hubspot" fill="#000000"></path>
                <g id="settings-gears" fill="#F06900" fill-rule="nonzero">
                    <path d="M2.22297405,12.2360507 C2.40096018,12.8463982 2.64796133,13.4349475 2.96034514,13.9871667 L2.07041452,15.1097702 C1.77982492,15.4767053 1.81251625,15.9998603 2.13942954,16.3304652 L3.67228964,17.8636 C4.0028353,18.1942049 4.52589656,18.2232327 4.89276592,17.9325911 L6.00790348,17.049767 C6.58181792,17.3804082 7.19205607,17.6383164 7.8277208,17.8199674 L7.99480981,19.2550107 C8.04929536,19.7200373 8.44159131,20.0688073 8.90653466,20.0688073 L11.0750595,20.0688073 C11.5400028,20.0688073 11.9322988,19.720001 11.9867843,19.2550107 L12.1466086,17.8708297 C12.8294941,17.6928117 13.4833207,17.4276012 14.0971912,17.0824642 L15.1760051,17.9362241 C15.5428745,18.2268658 16.0659357,18.1941686 16.3964814,17.8671967 L17.9293415,16.3340619 C18.2598871,16.003457 18.2889461,15.480302 17.9983565,15.1133669 L17.1592791,14.0488917 C17.5079866,13.4457739 17.7804143,12.8027656 17.9620328,12.1306567 L19.2551565,11.9817029 C19.7201362,11.9272075 20.0688073,11.5348413 20.0688073,11.0698146 L20.0688073,8.90090116 C20.0688073,8.43587448 19.7200998,8.04350823 19.2551565,7.98901291 L17.9801947,7.84005906 C17.8058046,7.17521624 17.5443103,6.53943758 17.2101686,5.94362216 L17.9947605,4.95180746 C18.28535,4.58487235 18.2526587,4.06171734 17.9257454,3.73111244 L16.3965177,2.20161065 C16.065972,1.87100575 15.5429108,1.84194159 15.1760414,2.13258326 L14.2134634,2.89551764 C13.5886958,2.52858253 12.9203034,2.24883992 12.2192923,2.05992284 L12.0739975,0.813796677 C12.019512,0.348770004 11.627216,0 11.1622727,0 L8.99374786,0 C8.52880451,0 8.13650856,0.348770004 8.08202301,0.813796677 L7.93672822,2.05992284 C7.21751898,2.25247295 6.53100107,2.54311462 5.89170397,2.92458181 L4.89280225,2.13258326 C4.52593289,1.84194159 4.00287162,1.87463877 3.67232596,2.20161065 L2.13946587,3.73474546 C1.80892021,4.06535036 1.77986125,4.58850537 2.07045084,4.95544048 L2.90589592,6.01264956 C2.57171788,6.61573102 2.31745199,7.25877572 2.15036298,7.92725156 L0.813650856,8.07983844 C0.34870751,8.13433375 0,8.5267 0,8.99172668 L0,11.1606401 C0,11.6256668 0.34870751,12.0180331 0.813650856,12.0725284 L2.22297405,12.2360507 Z M10.0797901,6.36872193 C12.0557994,6.36872193 13.6649392,7.97815018 13.6649392,9.95451354 C13.6649392,11.9308769 12.0557994,13.5403051 10.0797901,13.5403051 C8.10381723,13.5403051 6.49464105,11.9308769 6.49464105,9.95451354 C6.49464105,7.97815018 8.10378091,6.36872193 10.0797901,6.36872193 Z" id="Shape"></path>
                    <path d="M31.9619431,12.9581035 L30.7691014,12.0080282 C30.4018197,11.7151479 29.8602696,11.7294347 29.5119219,12.0401736 L28.8530189,12.6223626 C28.2963973,12.3687711 27.7056567,12.1901855 27.0959442,12.0866059 L26.9104667,11.2293951 C26.8157968,10.7865029 26.3803149,10.4793357 25.9031025,10.5150528 L24.3467281,10.6400627 C23.8695914,10.6793515 23.4946983,11.0472378 23.4795511,11.5008452 L23.4492946,12.3723428 C22.8509424,12.5759303 22.2867094,12.8545238 21.7717047,13.2045516 L20.9840884,12.7116554 C20.582612,12.4616356 20.0487112,12.5330698 19.7382315,12.8795258 L18.730943,14.0117584 C18.4203876,14.3582144 18.4355348,14.8689692 18.7649484,15.1975666 L19.4541837,15.8904429 C19.2155775,16.397626 19.0451715,16.9298467 18.9467526,17.4762829 L17.9621849,17.6655836 C17.4926218,17.7548764 17.1669571,18.1656232 17.2048251,18.6156945 L17.3373631,20.083668 C17.3790178,20.5337036 17.7690581,20.8873031 18.2499816,20.9015899 L19.3140721,20.9336996 C19.5072746,21.412309 19.7609523,21.865952 20.0676452,22.29095 L19.4731556,23.1374456 C19.2080796,23.516047 19.2838156,24.0196584 19.6510973,24.3125387 L20.843939,25.262614 C21.2112963,25.5554943 21.7527707,25.5412075 22.1011941,25.2304686 L22.8812747,24.5411283 C23.3924926,24.7661461 23.9301802,24.9340165 24.4830528,25.0340244 L24.6989382,26.0412471 C24.7936082,26.4841393 25.2290901,26.7913065 25.7062268,26.7555894 L27.2626012,26.6305795 C27.7397379,26.5912907 28.114631,26.2234401 28.1297782,25.769797 L28.1638594,24.7839689 C28.7318792,24.5946682 29.2695668,24.337505 29.7656375,24.0196584 L30.6252787,24.5554151 C31.0266794,24.8054349 31.5605802,24.7340007 31.8711356,24.3875447 L32.8784242,23.2624555 C33.1889038,22.9159995 33.1737566,22.4052448 32.844343,22.0766473 L32.1513209,21.383771 C32.4050743,20.8765879 32.5906653,20.3408312 32.6966199,19.7907519 L33.6433197,19.6085946 C34.1128828,19.5193018 34.4385475,19.108555 34.4006795,18.6584837 L34.2681415,17.1905102 C34.2264867,16.7404746 33.8364464,16.3868751 33.355523,16.3725883 L32.4050364,16.3440146 C32.208085,15.8225447 31.9430091,15.3296842 31.6135954,14.8724694 L32.132349,14.1366969 C32.4050364,13.7581669 32.3293004,13.2509838 31.9619431,12.9581035 Z M26.0962671,21.4444544 C24.4149283,21.5802151 22.9304274,20.3979429 22.7903537,18.8121387 C22.6464174,17.2262988 23.8999236,15.8261521 25.5811867,15.6939988 C27.2625255,15.5582738 28.7470264,16.740546 28.8871001,18.3263502 C29.0310363,19.9122258 27.7775301,21.3123368 26.0962671,21.4444544 Z" id="Shape"></path>
                    <path d="M7.51320514,25.355929 C7.05611429,25.4031017 6.7042269,25.7877044 6.70059919,26.2485817 L6.68971608,27.1666351 C6.68246067,27.6274762 7.02346495,28.0193725 7.48055579,28.0774675 L8.15530895,28.1645193 C8.26776781,28.5745952 8.42738683,28.9664916 8.63416602,29.3366159 L8.19884141,29.873659 C7.908625,30.232861 7.93039123,30.7481684 8.25325699,31.0783773 L8.89536079,31.7351665 C9.21822655,32.0653754 9.73336068,32.1016621 10.0997589,31.8186259 L10.6402507,31.4013289 C11.0211597,31.6263064 11.4238713,31.8041475 11.8446488,31.927486 L11.9172029,32.6241906 C11.9643631,33.0814029 12.3488998,33.4333839 12.8096183,33.4370126 L13.727464,33.4478986 C14.1881463,33.4551559 14.5799747,33.114061 14.638018,32.6568486 L14.7214552,31.9964307 C15.1785823,31.8839057 15.613907,31.7133945 16.0274291,31.488417 L16.5353078,31.8984566 C16.8944506,32.1887502 17.409621,32.1669782 17.7397422,31.8440266 L18.3963568,31.2017521 C18.726478,30.8788367 18.762755,30.3635294 18.4798303,29.9970337 L18.0915933,29.4926124 C18.3310218,29.0934587 18.5160711,28.6689044 18.6430407,28.222578 L19.2452398,28.1608906 C19.7023306,28.1137179 20.0541818,27.7290789 20.0578457,27.2682379 L20.0686926,26.3501482 C20.0759843,25.8893434 19.73498,25.4974108 19.2778891,25.4393521 L18.6901646,25.36315 C18.5777058,24.9204523 18.4108676,24.4922693 18.1932053,24.0931156 L18.5596035,23.6431606 C18.8498199,23.2839223 18.8280537,22.7686512 18.5051879,22.4384423 L17.8631204,21.7816531 C17.5402547,21.4514078 17.025048,21.4151212 16.658686,21.6981937 L16.2196974,22.0356599 C15.8061753,21.7852817 15.363559,21.5929623 14.8992491,21.4623301 L14.8411695,20.892629 C14.7940093,20.4353803 14.4095089,20.0834357 13.948754,20.079807 L13.0309446,20.068921 C12.5702261,20.0616637 12.1784339,20.4027586 12.1203544,20.859971 L12.0478003,21.4260797 C11.5689795,21.5494182 11.1082609,21.7381453 10.6801917,21.9848586 L10.2267286,21.6147343 C9.86758577,21.3244407 9.35241536,21.346249 9.0222942,21.6691643 L8.36205186,22.3151038 C8.0319307,22.6380191 7.99565364,23.1533265 8.27861464,23.5197858 L8.66677909,24.0205785 C8.44186137,24.4197322 8.26410382,24.8442503 8.14801726,25.2906129 L7.51320514,25.355929 Z M13.4372476,24.3180932 C14.7541046,24.3326078 15.8097305,25.4176164 15.7952559,26.7348234 C15.7807451,28.0520305 14.696025,29.1079371 13.3791681,29.0934587 C12.0623111,29.078944 11.0066852,27.9939718 11.0211597,26.6767284 C11.0357068,25.3595576 12.1203906,24.3036148 13.4372476,24.3180932 Z" id="Shape"></path>
                </g>
                <path d="M205.477064,21.3623853 C205.669726,21.3623853 205.827981,21.4243113 205.951835,21.5481651 C206.075689,21.672019 206.137615,21.8302743 206.137615,22.0229358 C206.137615,22.2155973 206.075689,22.3738526 205.951835,22.4977064 C205.827981,22.6215603 205.669726,22.6834862 205.477064,22.6834862 L202.518349,22.6834862 L202.518349,31.3944954 C202.518349,31.5963313 202.449542,31.7660544 202.311927,31.9036697 C202.174311,32.0412851 202.004588,32.1100917 201.802752,32.1100917 C201.600916,32.1100917 201.431193,32.0412851 201.293578,31.9036697 C201.155963,31.7660544 201.087156,31.5963313 201.087156,31.3944954 L201.087156,22.6834862 L198.114679,22.6834862 C197.922017,22.6834862 197.763762,22.6215603 197.639908,22.4977064 C197.516054,22.3738526 197.454128,22.2155973 197.454128,22.0229358 C197.454128,21.8302743 197.516054,21.672019 197.639908,21.5481651 C197.763762,21.4243113 197.922017,21.3623853 198.114679,21.3623853 L205.477064,21.3623853 Z M210.551606,24.5137615 C211.184636,24.5137615 211.753438,24.6513748 212.258028,24.9266055 C212.762617,25.2018362 213.157109,25.6032084 213.441514,26.1307339 C213.725919,26.6582595 213.868119,27.2935743 213.868119,28.0366972 L213.868119,31.4220183 C213.868119,31.6238542 213.801606,31.7912837 213.668578,31.9243119 C213.53555,32.0573401 213.36812,32.1238532 213.166284,32.1238532 C212.964449,32.1238532 212.797019,32.0573401 212.663991,31.9243119 C212.530963,31.7912837 212.46445,31.6238542 212.46445,31.4220183 L212.46445,28.0366972 C212.46445,27.2935743 212.26491,26.7316533 211.865826,26.3509174 C211.466741,25.9701816 210.93693,25.7798165 210.276376,25.7798165 C209.891053,25.7798165 209.540139,25.8577974 209.223624,26.0137615 C208.907109,26.1697256 208.659405,26.3807326 208.480505,26.646789 C208.301605,26.9128454 208.212156,27.2110075 208.212156,27.5412844 L208.212156,31.4220183 C208.212156,31.6238542 208.147936,31.7912837 208.019495,31.9243119 C207.891054,32.0573401 207.721331,32.1238532 207.510321,32.1238532 C207.308485,32.1238532 207.141056,32.0573401 207.008028,31.9243119 C206.874999,31.7912837 206.808486,31.6238542 206.808486,31.4220183 L206.808486,22.0642202 C206.808486,21.85321 206.874999,21.6834869 207.008028,21.5550459 C207.141056,21.4266049 207.308485,21.3623853 207.510321,21.3623853 C207.721331,21.3623853 207.891054,21.4266049 208.019495,21.5550459 C208.147936,21.6834869 208.212156,21.85321 208.212156,22.0642202 L208.212156,25.4357798 C208.505735,25.1422004 208.854356,24.9151384 209.258028,24.7545872 C209.661699,24.5940359 210.092888,24.5137615 210.551606,24.5137615 Z M222.190367,28.2293578 C222.190367,28.4036706 222.130735,28.5481646 222.011468,28.662844 C221.892201,28.7775235 221.740827,28.8348624 221.55734,28.8348624 L216.327982,28.8348624 C216.4289,29.4770674 216.720181,29.9954109 217.201835,30.3899083 C217.683489,30.7844056 218.272932,30.9816514 218.970184,30.9816514 C219.245414,30.9816514 219.532109,30.9311932 219.830275,30.8302752 C220.128442,30.7293573 220.373852,30.6055053 220.566514,30.4587156 C220.694955,30.3577977 220.84633,30.3073394 221.020642,30.3073394 C221.194955,30.3073394 221.332568,30.3532106 221.433486,30.4449541 C221.598625,30.5825695 221.681193,30.7385312 221.681193,30.912844 C221.681193,31.0779825 221.607799,31.2155958 221.461009,31.3256881 C221.149081,31.5733957 220.76147,31.7752286 220.298165,31.9311927 C219.83486,32.0871567 219.392204,32.1651376 218.970184,32.1651376 C218.217886,32.1651376 217.543581,32.0022952 216.947248,31.6766055 C216.350915,31.3509158 215.885323,30.8990855 215.550459,30.3211009 C215.215595,29.7431164 215.048165,29.0871596 215.048165,28.353211 C215.048165,27.6192624 215.206421,26.9610121 215.522936,26.3784404 C215.839451,25.7958686 216.279814,25.3417447 216.844037,25.016055 C217.40826,24.6903653 218.048162,24.5275229 218.763762,24.5275229 C219.470187,24.5275229 220.080273,24.6834847 220.594037,24.9954128 C221.107801,25.307341 221.502292,25.7431165 221.777523,26.3027523 C222.052754,26.8623881 222.190367,27.5045835 222.190367,28.2293578 Z M218.763762,25.7110092 C218.094033,25.7110092 217.550461,25.8944936 217.133028,26.2614679 C216.715594,26.6284422 216.451836,27.119263 216.341743,27.733945 L220.924312,27.733945 C220.841743,27.119263 220.612387,26.6284422 220.236239,26.2614679 C219.86009,25.8944936 219.369269,25.7110092 218.763762,25.7110092 Z M231.118119,24.5137615 C231.916289,24.5137615 232.560778,24.7752267 233.051606,25.2981651 C233.542434,25.8211035 233.787844,26.550454 233.787844,27.4862385 L233.787844,31.4220183 C233.787844,31.6238542 233.723625,31.7912837 233.595184,31.9243119 C233.466743,32.0573401 233.29702,32.1238532 233.086009,32.1238532 C232.884173,32.1238532 232.716744,32.0573401 232.583716,31.9243119 C232.450688,31.7912837 232.384174,31.6238542 232.384174,31.4220183 L232.384174,27.4862385 C232.384174,26.9266027 232.244268,26.502295 231.96445,26.2133028 C231.684632,25.9243105 231.310782,25.7798165 230.84289,25.7798165 C230.365823,25.7798165 229.973626,25.9449525 229.666285,26.2752294 C229.358944,26.6055062 229.205275,27.0275204 229.205275,27.5412844 L229.205275,31.4220183 C229.205275,31.6238542 229.141056,31.7912837 229.012615,31.9243119 C228.884174,32.0573401 228.714451,32.1238532 228.503441,32.1238532 C228.301605,32.1238532 228.134175,32.0573401 228.001147,31.9243119 C227.868119,31.7912837 227.801606,31.6238542 227.801606,31.4220183 L227.801606,27.4862385 C227.801606,26.9266027 227.661699,26.502295 227.381881,26.2133028 C227.102063,25.9243105 226.728214,25.7798165 226.260321,25.7798165 C225.77408,25.7798165 225.377295,25.9449525 225.069954,26.2752294 C224.762613,26.6055062 224.608945,27.0275204 224.608945,27.5412844 L224.608945,31.4220183 C224.608945,31.6238542 224.544726,31.7912837 224.416285,31.9243119 C224.287844,32.0573401 224.11812,32.1238532 223.90711,32.1238532 C223.705274,32.1238532 223.537845,32.0573401 223.404817,31.9243119 C223.271788,31.7912837 223.205275,31.6238542 223.205275,31.4220183 L223.205275,25.2981651 C223.205275,25.0871549 223.271788,24.9174318 223.404817,24.7889908 C223.537845,24.6605498 223.705274,24.5963303 223.90711,24.5963303 C224.108946,24.5963303 224.274082,24.6582563 224.402523,24.7821101 C224.530964,24.9059639 224.599771,25.0688063 224.608945,25.2706422 C224.847478,25.0321089 225.131879,24.8463309 225.462156,24.7133028 C225.792433,24.5802746 226.150228,24.5137615 226.535551,24.5137615 C227.003443,24.5137615 227.423163,24.6077972 227.794725,24.7958716 C228.166286,24.9839459 228.471329,25.2522918 228.709863,25.6009174 C228.985093,25.2614662 229.329127,24.9954138 229.741973,24.8027523 C230.154819,24.6100908 230.61353,24.5137615 231.118119,24.5137615 Z M242.09633,28.2293578 C242.09633,28.4036706 242.036698,28.5481646 241.917431,28.662844 C241.798165,28.7775235 241.64679,28.8348624 241.463303,28.8348624 L236.233945,28.8348624 C236.334863,29.4770674 236.626145,29.9954109 237.107798,30.3899083 C237.589452,30.7844056 238.178896,30.9816514 238.876147,30.9816514 C239.151378,30.9816514 239.438072,30.9311932 239.736239,30.8302752 C240.034405,30.7293573 240.279816,30.6055053 240.472477,30.4587156 C240.600918,30.3577977 240.752293,30.3073394 240.926606,30.3073394 C241.100919,30.3073394 241.238532,30.3532106 241.33945,30.4449541 C241.504588,30.5825695 241.587156,30.7385312 241.587156,30.912844 C241.587156,31.0779825 241.513762,31.2155958 241.366973,31.3256881 C241.055045,31.5733957 240.667434,31.7752286 240.204129,31.9311927 C239.740824,32.0871567 239.298167,32.1651376 238.876147,32.1651376 C238.12385,32.1651376 237.449544,32.0022952 236.853211,31.6766055 C236.256878,31.3509158 235.791286,30.8990855 235.456422,30.3211009 C235.121558,29.7431164 234.954129,29.0871596 234.954129,28.353211 C234.954129,27.6192624 235.112384,26.9610121 235.428899,26.3784404 C235.745415,25.7958686 236.185777,25.3417447 236.75,25.016055 C237.314223,24.6903653 237.954125,24.5275229 238.669725,24.5275229 C239.376151,24.5275229 239.986236,24.6834847 240.5,24.9954128 C241.013764,25.307341 241.408256,25.7431165 241.683486,26.3027523 C241.958717,26.8623881 242.09633,27.5045835 242.09633,28.2293578 Z M238.669725,25.7110092 C237.999997,25.7110092 237.456424,25.8944936 237.038991,26.2614679 C236.621558,26.6284422 236.357799,27.119263 236.247707,27.733945 L240.830275,27.733945 C240.747706,27.119263 240.518351,26.6284422 240.142202,26.2614679 C239.766053,25.8944936 239.275233,25.7110092 238.669725,25.7110092 Z M245.849771,32.1651376 C245.225915,32.1651376 244.638764,32.0688083 244.088303,31.8761468 C243.537842,31.6834853 243.106653,31.4311942 242.794725,31.1192661 C242.675458,30.9999994 242.615826,30.857799 242.615826,30.6926606 C242.615826,30.472476 242.707568,30.2935787 242.891055,30.1559633 C243.065368,30.0275223 243.225917,29.9633028 243.372707,29.9633028 C243.556194,29.9633028 243.730504,30.0458707 243.895642,30.2110092 C244.069955,30.4036707 244.331421,30.5711002 244.680046,30.7133028 C245.028672,30.8555053 245.400228,30.9266055 245.794725,30.9266055 C246.317663,30.9266055 246.723623,30.8394504 247.012615,30.6651376 C247.301607,30.4908248 247.446101,30.2568822 247.446101,29.9633028 C247.446101,29.6788977 247.303901,29.4426615 247.019496,29.2545872 C246.735091,29.0665128 246.253444,28.9082575 245.574542,28.7798165 C243.813065,28.4403653 242.93234,27.7156019 242.93234,26.6055046 C242.93234,26.1559611 243.065366,25.7752309 243.331422,25.4633028 C243.597479,25.1513746 243.946099,24.917432 244.377294,24.7614679 C244.808489,24.6055038 245.2672,24.5275229 245.753441,24.5275229 C246.349774,24.5275229 246.884172,24.6238522 247.356652,24.8165138 C247.829131,25.0091753 248.202981,25.2752277 248.478211,25.6146789 C248.597478,25.7614686 248.65711,25.9082561 248.65711,26.0550459 C248.65711,26.21101 248.579129,26.3532104 248.423165,26.4816514 C248.322247,26.5550462 248.193808,26.5917431 248.037844,26.5917431 C247.799311,26.5917431 247.583717,26.504588 247.391055,26.3302752 C247.161696,26.119265 246.91858,25.9701839 246.661698,25.8830275 C246.404816,25.7958711 246.092892,25.7522936 245.725918,25.7522936 C245.303897,25.7522936 244.95757,25.8233938 244.686927,25.9655963 C244.416283,26.1077989 244.280964,26.3073382 244.280964,26.5642202 C244.280964,26.7477073 244.326835,26.9013755 244.418578,27.0252294 C244.510322,27.1490832 244.684632,27.2637609 244.941514,27.3692661 C245.198396,27.4747712 245.569952,27.5779811 246.056193,27.6788991 C247.056198,27.880735 247.764906,28.1605487 248.18234,28.5183486 C248.599773,28.8761486 248.808487,29.3394467 248.808487,29.9082569 C248.808487,30.3302773 248.693809,30.713301 248.46445,31.0573394 C248.235091,31.4013779 247.897938,31.6720174 247.452982,31.8692661 C247.008026,32.0665147 246.473627,32.1651376 245.849771,32.1651376 Z" id="Themes" fill="#000000"></path>
            </g>
        </g>
    </g>
</svg>