<svg xmlns="http://www.w3.org/2000/svg" width="47" height="47" viewBox="0 0 47 47">
    <g fill="none" fill-rule="evenodd">
        <circle cx="23.5" cy="23.5" r="23.5" fill="#3FA2F7"/>
        <path fill="#FFF" fill-rule="nonzero" d="M23.9 38.8C15.684 38.8 9 32.117 9 23.9 9 15.684 15.684 9 23.9 9c8.216 0 14.9 6.684 14.9 14.9 0 8.216-6.684 14.9-14.9 14.9zm0-28.897c-7.718 0-13.997 6.279-13.997 13.997 0 7.719 6.279 13.998 13.997 13.998 7.719 0 13.998-6.28 13.998-13.998 0-7.718-6.28-13.997-13.998-13.997z"/>
        <path fill="#FFF" d="M23.9 9.903C15.684 9.903 9 16.385 9 24.352S15.684 38.8 23.9 38.8c8.217 0 14.9-6.482 14.9-14.45 0-7.966-6.683-14.448-14.9-14.448z"/>
        <path fill="#3FA2F7" fill-rule="nonzero" d="M23.9 32.73a7.031 7.031 0 0 1-7.023-7.024c0-.249.203-.451.452-.451h13.144c.25 0 .451.202.451.451 0 3.873-3.151 7.024-7.024 7.024zm-6.103-6.572a6.127 6.127 0 0 0 6.103 5.668 6.127 6.127 0 0 0 6.104-5.668H17.797zM17.553 20.374c.442-1.249 1.119-1.848 2.067-1.89.922-.04 1.586.546 2.033 1.882a.452.452 0 1 0 .857-.286c-.564-1.685-1.554-2.559-2.93-2.498-1.35.06-2.322.92-2.878 2.49a.452.452 0 1 0 .851.302zM25.68 20.374c.443-1.249 1.12-1.848 2.067-1.89.922-.04 1.587.546 2.034 1.882a.452.452 0 1 0 .856-.286c-.563-1.685-1.554-2.559-2.93-2.498-1.35.06-2.322.92-2.878 2.49a.452.452 0 0 0 .852.302z"/>
        <path fill="#3FA2F7" fill-rule="nonzero" d="M21.654 32.017a.452.452 0 0 1-.451-.451v-5.86a.452.452 0 0 1 .903 0v5.86c0 .25-.202.451-.452.451zM26.146 32.017a.452.452 0 0 1-.451-.451v-5.86a.452.452 0 0 1 .903 0v5.86a.45.45 0 0 1-.452.451z"/>
    </g>
</svg>
