<svg xmlns="http://www.w3.org/2000/svg" xmlns:xlink="http://www.w3.org/1999/xlink" width="384" height="232" viewBox="0 0 384 232">
    <defs>
        <path id="a" d="M0 231.308h383.412V0H0z"/>
    </defs>
    <g fill="none" fill-rule="evenodd" transform="translate(0 .5)">
        <path fill="#FFF" d="M336.678 223.703l3.56-29.661-3.414-.35-3.56 29.662 1.145 4.086c.021.082.14.094.182.018l2.087-3.755z"/>
        <path fill="#E8F3FD" d="M334.971 223.528l3.56-29.661-1.707-.175-3.56 29.662z"/>
        <path fill="#FFF" d="M339.892 197.726l.442-3.68-3.604-.37-.442 3.681z"/>
        <path fill="#3FA2F7" d="M334.068 223.292l.648 2.312 1.193-2.15 3.448-28.708-1.839-.188-3.45 28.734zm.438 5.008a.88.88 0 0 1-.862-.657l-1.186-4.228 3.671-30.588 4.992.511-3.675 30.613-2.162 3.89a.883.883 0 0 1-.778.459z"/>
        <path fill="#3FA2F7" d="M339.288 198.46l-2.986-.307.16-1.572 2.986.305zM336.383 224.467l-2.986-.305.16-1.573 2.987.306z"/>
        <path fill="#FFF" d="M329.958 224.197l3.933-35.418-3.772-.416-3.933 35.416 1.266 4.88a.108.108 0 0 0 .2.024l2.306-4.486z"/>
        <path fill="#FFF" d="M333.507 193.18l.49-4.395-3.982-.44-.488 4.394z"/>
        <path fill="#3FA2F7" d="M326.99 223.722l.778 3.004 1.418-2.761 3.83-34.486-2.197-.243-3.83 34.486zm.569 5.81a.894.894 0 0 1-.875-.677l-1.301-5.018.016-.144 4.02-36.203 5.346.59-4.102 36.477-2.306 4.486a.893.893 0 0 1-.798.49z"/>
        <path fill="#3FA2F7" d="M332.842 193.901l-3.297-.366.175-1.57 3.297.365zM329.633 224.956l-3.297-.364.175-1.57 3.297.364z"/>
        <path fill="#FFF" d="M336.151 223.292l-10.953-32.745-3.612 1.121 10.953 32.744 3.157 3.8c.063.075.189.036.194-.06l.261-4.86z"/>
        <path fill="#E8F3FD" d="M336.151 223.292l-10.953-32.745-3.612 1.121 10.953 32.744z"/>
        <path fill="#E8F3FD" d="M334.345 223.853l-10.953-32.745-1.806.56 10.953 32.745z"/>
        <path fill="#FFF" d="M326.654 194.572l-1.36-4.062-3.811 1.184 1.36 4.062z"/>
        <path fill="#3FA2F7" d="M333.243 224.022l1.95 2.346.158-2.968-10.659-31.868-2.099.651 10.65 31.839zm2.535 5.021a.897.897 0 0 1-.69-.324l-3.254-3.915-.046-.141-11.21-33.51 5.125-1.591 11.248 33.622-.27 5.01a.893.893 0 0 1-.613.802.924.924 0 0 1-.29.047z"/>
        <path fill="#3FA2F7" d="M323.177 196.48l-.47-1.51 3.158-.98.47 1.508zM333 225.098l-.47-1.51 3.158-.98.47 1.508z"/>
        <path fill="#3FA2F7" d="M338.472 230.517h-16.638l-2.345-29.616h21.328z"/>
        <path fill="#E8F3FD" d="M340.382 206.383l.313-3.937h-21.083l.312 3.937z"/>
        <path fill="#3FA2F7" d="M322.567 229.727h15.172l2.22-28.036h-19.613l2.22 28.036zm16.637 1.58h-18.102l-2.47-31.197h23.042l-2.47 31.198z"/>
        <path fill="#3FA2F7" d="M342.369 204.043h-24.43a.458.458 0 0 1-.46-.458v-3.021c0-.253.206-.458.46-.458h24.43c.252 0 .458.205.458.458v3.021a.458.458 0 0 1-.458.458"/>
        <path fill="#E8F3FD" d="M342.369 200.106h-24.43a.458.458 0 0 0-.46.459v.913c0 .253.206.457.46.457h24.43a.458.458 0 0 0 .458-.457v-.913a.458.458 0 0 0-.458-.459"/>
        <mask id="b" fill="#fff">
            <use xlink:href="#a"/>
        </mask>
        <path fill="#3FA2F7" d="M318.272 203.253h23.763v-2.356h-23.763v2.356zm24.097 1.581h-24.43c-.69 0-1.251-.56-1.251-1.249v-3.02c0-.689.56-1.25 1.25-1.25h24.43c.69 0 1.251.561 1.251 1.25v3.02c0 .689-.562 1.25-1.25 1.25z" mask="url(#b)"/>
        <path fill="#FFF" d="M31.6 195.63v-8.48c0-2.111-1.715-3.82-3.828-3.82h-1.849a3.824 3.824 0 0 0-3.827 3.82v8.48a5.673 5.673 0 0 0-5.679 5.667v29.22h20.86v-29.22a5.673 5.673 0 0 0-5.678-5.667" mask="url(#b)"/>
        <path fill="#FFF" d="M29.487 195.63v-8.48c0-2.066-1.645-3.736-3.696-3.807a3.787 3.787 0 0 0-2.115.728 3.78 3.78 0 0 1 1.586 3.078v8.481a5.673 5.673 0 0 1 5.678 5.667v29.22h4.225v-29.22a5.673 5.673 0 0 0-5.678-5.667" mask="url(#b)"/>
        <path fill="#3FA2F7" d="M17.21 229.727h19.276v-28.43c0-2.688-2.193-4.876-4.886-4.876h-.792v-9.272c0-1.67-1.363-3.03-3.036-3.03h-1.848a3.036 3.036 0 0 0-3.036 3.03v9.272h-.792c-2.694 0-4.886 2.188-4.886 4.876v28.43zm20.86 1.58H15.626v-30.01c0-3.293 2.483-6.018 5.678-6.409v-7.74a4.62 4.62 0 0 1 4.62-4.61h1.848a4.62 4.62 0 0 1 4.62 4.61v7.74c3.195.391 5.678 3.116 5.678 6.409v30.01z" mask="url(#b)"/>
        <path fill="#3FA2F7" d="M22.28 187.331a.099.099 0 0 0-.099.099v3.665c0 .053.045.097.099.097h9.097a.098.098 0 0 0 .098-.097v-3.665a.099.099 0 0 0-.098-.099H22.28zm9.097 5.442H22.28a1.682 1.682 0 0 1-1.683-1.678v-3.665c0-.926.755-1.68 1.683-1.68h9.097c.927 0 1.682.754 1.682 1.68v3.665c0 .925-.755 1.678-1.682 1.678z" mask="url(#b)"/>
        <path fill="#FFF" d="M73.23 206.59H50.16v7c0 4.975 1.874 9.77 5.25 13.434v3.493h12.569v-3.493a19.822 19.822 0 0 0 5.25-13.435v-7z" mask="url(#b)"/>
        <path fill="#3FA2F7" d="M56.202 229.727h10.985v-3.01l.21-.229a18.987 18.987 0 0 0 5.04-12.9v-6.208H50.953v6.209c0 4.79 1.79 9.373 5.041 12.9l.21.227v3.01zm12.57 1.58H54.617v-3.978a20.557 20.557 0 0 1-5.25-13.74v-7.79h24.654v7.79c0 5.084-1.862 9.951-5.25 13.74v3.979z" mask="url(#b)"/>
        <path fill="#3FA2F7" d="M51.331 220.625h-3.794c-3.157 0-5.724-2.564-5.724-5.713 0-3.15 2.567-5.712 5.724-5.712h2.438v1.58h-2.438a4.14 4.14 0 0 0-4.14 4.132 4.142 4.142 0 0 0 4.14 4.132h3.794v1.58zM59.57 204.093h-1.584v-1.375a4.492 4.492 0 0 1 4.49-4.482h3.408a.538.538 0 1 0 0-1.074H55.167a2.006 2.006 0 0 1-2.005-2.001c0-1.103.9-2 2.005-2h4.505v1.581h-4.505a.42.42 0 0 0-.42.419c0 .232.189.42.42.42h10.717c1.17 0 2.123.95 2.123 2.119a2.123 2.123 0 0 1-2.123 2.118h-3.407a2.908 2.908 0 0 0-2.907 2.9v1.375z" mask="url(#b)"/>
        <path fill="#3FA2F7" d="M65.398 194.991h-3.875v-1.581h3.875a.572.572 0 0 0 .572-.57.572.572 0 0 0-.572-.57h-9.966a2.27 2.27 0 0 1-2.27-2.265 2.27 2.27 0 0 1 2.27-2.266h14.493v1.581H55.432a.685.685 0 0 0 0 1.368h9.966c1.189 0 2.156.966 2.156 2.152a2.157 2.157 0 0 1-2.156 2.151" mask="url(#b)"/>
        <path fill="#FFF" d="M205.881 64.611h-.859a3.091 3.091 0 0 1-3.094-3.087l-1.057-32.366c0-3.512 1.6-6.835 4.345-9.031l3.808-3.045C199.14 10.94 201.746.826 201.746.826c4.555 6.82 29.372 6.722 43.802 8.938a7.752 7.752 0 0 1 6.525 6.66l.35 2.694a5.114 5.114 0 0 1 5.119 5.109l-1.056 37.297a3.09 3.09 0 0 1-3.094 3.087H205.88z" mask="url(#b)"/>
        <path fill="#3FA2F7" d="M201.746 3.988c4.555 6.821 29.372 6.722 43.802 8.938 3.42.526 5.115 2.243 5.56 5.669l.349 2.694c2.59 0 5.674 2.918 6.015 5.408l.07-2.47a5.113 5.113 0 0 0-5.12-5.108l-.35-2.696a7.754 7.754 0 0 0-6.524-6.66c-14.43-2.215-39.247-2.116-43.802-8.937 0 0-.499 1.936-.233 4.63.093-.916.233-1.468.233-1.468" mask="url(#b)"/>
        <path fill="#3FA2F7" d="M202.278 2.591c-.259 2.981.117 9.442 7.164 13.82l.951.59-4.682 3.743a10.722 10.722 0 0 0-4.048 8.414l1.057 32.469c0 1.221.974 2.193 2.173 2.193h48.629a2.172 2.172 0 0 0 2.171-2.168l1.056-37.448c0-2.358-1.94-4.295-4.326-4.295h-.697l-.44-3.384c-.396-3.051-2.806-5.51-5.858-5.98-3.89-.597-8.497-1.02-13.376-1.47-12.28-1.13-24.943-2.297-29.774-6.484m51.244 62.81h-48.629a3.757 3.757 0 0 1-3.758-3.749l-1.056-32.468a12.31 12.31 0 0 1 4.642-9.674l2.959-2.366c-8.766-6.122-6.966-15.354-6.724-16.418l.114-.5L202.108 0l.337.447c3.194 4.609 17.304 5.909 29.753 7.054 4.903.452 9.533.877 13.47 1.482 3.747.576 6.703 3.594 7.191 7.34l.266 2.047c2.93.347 5.209 2.842 5.209 5.858l-1.056 37.447c0 2.046-1.685 3.727-3.756 3.727" mask="url(#b)"/>
        <path fill="#E8F3FD" d="M257.466 54.182a3.27 3.27 0 0 1-3.273 3.261 3.266 3.266 0 0 1-3.268-3.261V51.02a3.266 3.266 0 0 1 3.268-3.262 3.269 3.269 0 0 1 3.273 3.262v3.162z" mask="url(#b)"/>
        <path fill="#3FA2F7" d="M254.194 48.55a2.477 2.477 0 0 0-2.477 2.47v3.162a2.476 2.476 0 0 0 2.477 2.47 2.477 2.477 0 0 0 2.48-2.47V51.02a2.478 2.478 0 0 0-2.48-2.47m0 9.684a4.062 4.062 0 0 1-4.061-4.052V51.02a4.063 4.063 0 0 1 8.126 0v3.162a4.063 4.063 0 0 1-4.065 4.052" mask="url(#b)"/>
        <path fill="#E8F3FD" d="M207.823 54.182a3.27 3.27 0 0 1-3.272 3.261 3.266 3.266 0 0 1-3.268-3.261V51.02a3.266 3.266 0 0 1 3.268-3.262 3.269 3.269 0 0 1 3.272 3.262v3.162z" mask="url(#b)"/>
        <path fill="#3FA2F7" d="M204.551 48.55a2.477 2.477 0 0 0-2.476 2.47v3.162a2.476 2.476 0 0 0 2.476 2.47 2.477 2.477 0 0 0 2.48-2.47V51.02a2.478 2.478 0 0 0-2.48-2.47m0 9.684a4.062 4.062 0 0 1-4.06-4.052V51.02a4.063 4.063 0 0 1 8.126 0l-.001 3.162a4.063 4.063 0 0 1-4.065 4.052" mask="url(#b)"/>
        <path fill="#FFF" d="M259.043 230.517V114.14c0-16.446-13.484-29.903-29.962-29.903-16.48 0-29.963 13.457-29.963 29.903v116.378h59.925z" mask="url(#b)"/>
        <path fill="#3FA2F7" d="M229.08 84.236c-16.48 0-29.962 13.457-29.962 29.903v6.532c0-16.446 13.483-29.901 29.963-29.901 16.479 0 29.962 13.455 29.962 29.9v-6.531c0-16.446-13.483-29.903-29.962-29.903" mask="url(#b)"/>
        <path fill="#3FA2F7" d="M259.835 230.517h-1.585V114.14c0-16.053-13.085-29.112-29.17-29.112-16.084 0-29.17 13.059-29.17 29.112v116.378h-1.584V114.14c0-16.925 13.796-30.693 30.755-30.693 16.957 0 30.754 13.768 30.754 30.693v116.378z" mask="url(#b)"/>
        <path fill="#3FA2F7" d="M213.853 230.517h1.584V112.063h-1.584zM244.43 230.517h1.584V112.063h-1.584z" mask="url(#b)"/>
        <path fill="#FFF" d="M230.362 96.326h-3.641a4.706 4.706 0 0 1-4.71-4.701V74.22a4.707 4.707 0 0 1 4.711-4.703h3.64a4.707 4.707 0 0 1 4.712 4.703v17.404a4.706 4.706 0 0 1-4.712 4.7" mask="url(#b)"/>
        <path fill="#3FA2F7" d="M226.722 70.31a3.92 3.92 0 0 0-3.92 3.91v17.404a3.92 3.92 0 0 0 3.919 3.912h3.64a3.92 3.92 0 0 0 3.92-3.912V74.22a3.92 3.92 0 0 0-3.92-3.91h-3.64zm3.64 26.807h-3.641c-3.035 0-5.503-2.465-5.503-5.493V74.22c0-3.028 2.47-5.492 5.504-5.492h3.64c3.034 0 5.503 2.464 5.503 5.492v17.404c0 3.028-2.469 5.493-5.503 5.493z" mask="url(#b)"/>
        <path fill="#FFF" d="M229.08 83.465c-13.663 0-24.84-11.156-24.84-24.79V41.872c0-13.635 11.177-24.79 24.84-24.79s24.84 11.155 24.84 24.79v16.803c0 13.634-11.177 24.79-24.84 24.79" mask="url(#b)"/>
        <path fill="#FFF" d="M229.08 17.082c-.712 0-1.415.038-2.112.097 12.682 1.08 22.728 11.769 22.728 24.693v16.803c0 12.924-10.046 23.614-22.728 24.693.697.06 1.4.097 2.113.097 13.662 0 24.84-11.155 24.84-24.79V41.872c0-13.634-11.178-24.79-24.84-24.79" mask="url(#b)"/>
        <path fill="#FFF" d="M230.672 83.408c10.303-.659 18.946-7.657 22.03-17.103-5.46-.312-14.486 2.46-14.486 2.46v-1.25a2.812 2.812 0 0 0-2.814-2.808h-13.875a2.812 2.812 0 0 0-2.814 2.808v1.25s-8.11-2.532-13.224-2.368c3.112 9.4 11.731 16.353 21.999 17.011.156.01.315.021.467.028.372.016.748.03 1.126.03.378 0 .752-.014 1.125-.03.153-.007.311-.018.466-.028" mask="url(#b)"/>
        <path fill="#3FA2F7" d="M229.08 17.873c-13.26 0-24.047 10.765-24.047 24v16.802c0 13.233 10.788 24 24.048 24 13.26 0 24.048-10.767 24.048-24V41.872c0-13.234-10.788-24-24.048-24m0 66.384c-14.134 0-25.633-11.476-25.633-25.58V41.871c0-14.106 11.5-25.58 25.633-25.58s25.632 11.474 25.632 25.58v16.803c0 14.105-11.499 25.58-25.632 25.58" mask="url(#b)"/>
        <path fill="#FFF" d="M239.093 14.13s-15.432-4.325-31.136 7.444l-6.163 12.707s29.048 9.016 46.018-14.927c4.892-6.9-8.719-5.224-8.719-5.224" mask="url(#b)"/>
        <path fill="#FFF" d="M243.086 20.11s-4.006 15.595 13.223 19.206v-7.61l-1.003-6.398-12.22-5.197z" mask="url(#b)"/>
        <path fill="#FFF" d="M244.571 23.642c-.203-1.238-1.605-1.865-2.669-1.199-16.868 10.566-33.34 13.303-38.28 12.27 0 0 20.963 6.027 39.078-10.037.19 4.9.615 11.85 11.803 14.194-6.612-4.337-9.15-10.467-9.932-15.228" mask="url(#b)"/>
        <path fill="#3FA2F7" d="M255.212 39.875c-10.613-2.224-12.777-8.623-13.22-13.715-18.196 14.771-39.215 9.173-39.43 9.114l.425-1.524c.208.058 21.114 5.598 38.846-9.515a1.013 1.013 0 0 1 1.064-.162c.355.153.587.49.603.876.232 5.103 1.808 11.235 12.038 13.379l-.326 1.547zM206.569 41.677a1.32 1.32 0 0 0-1.32 1.317v10.873a1.32 1.32 0 0 0 1.32 1.318h17.662a1.32 1.32 0 0 0 1.32-1.318V42.994a1.32 1.32 0 0 0-1.32-1.317H206.57zm17.662 15.089H206.57a2.905 2.905 0 0 1-2.905-2.899V42.994a2.905 2.905 0 0 1 2.905-2.899h17.662c1.601 0 2.905 1.301 2.905 2.9v10.872a2.905 2.905 0 0 1-2.905 2.899zM233.914 41.677a1.32 1.32 0 0 0-1.32 1.317v10.873a1.32 1.32 0 0 0 1.32 1.318h17.661a1.32 1.32 0 0 0 1.32-1.318V42.994a1.32 1.32 0 0 0-1.32-1.317h-17.66zm17.661 15.089h-17.66a2.905 2.905 0 0 1-2.905-2.899V42.994a2.905 2.905 0 0 1 2.904-2.899h17.661c1.601 0 2.905 1.301 2.905 2.9v10.872a2.905 2.905 0 0 1-2.905 2.899z" mask="url(#b)"/>
        <path fill="#3FA2F7" d="M213.505 46.283a2.545 2.545 0 0 0-.68 1.726 2.573 2.573 0 0 0 2.575 2.57 2.572 2.572 0 0 0 2.574-2.57c0-.668-.26-1.27-.678-1.726h-3.791zM241.461 46.283a2.544 2.544 0 0 0-.679 1.726 2.573 2.573 0 0 0 2.575 2.57 2.572 2.572 0 0 0 2.574-2.57c0-.668-.26-1.27-.678-1.726h-3.792zM226.343 49.22h4.844v-1.58h-4.844zM230.457 63.528h-2.964v-1.581h2.964c.572 0 1.038-.465 1.038-1.038v-.168c0-.572-.466-1.036-1.038-1.036h-2.291v-6.009h1.584v4.428h.707a2.623 2.623 0 0 1 2.622 2.617v.168a2.623 2.623 0 0 1-2.622 2.619" mask="url(#b)"/>
        <path fill="#FFFFFE" d="M235.739 69.008c0 3.6-2.925 6.518-6.533 6.518-3.607 0-6.53-2.919-6.53-6.518h13.063z" mask="url(#b)"/>
        <path fill="#3FA2F7" d="M223.522 69.798a5.743 5.743 0 0 0 5.685 4.938 5.745 5.745 0 0 0 5.685-4.938h-11.37zm5.685 6.519c-4.038 0-7.324-3.28-7.324-7.31v-.79h14.648v.79c0 4.03-3.285 7.31-7.324 7.31z" mask="url(#b)"/>
        <path fill="#E8F3FD" d="M259.835 230.517V114.14c0-1.646-.137-3.259-.388-4.834h-1.003c-14.333 0-25.993 11.636-25.993 25.939v13.915a4.032 4.032 0 0 0-1.308 2.962v3.162c0 2.083 1.588 3.783 3.616 4.007.657 11.083 8.318 20.312 18.618 23.336v1.98c-13.16 3.476-22.892 15.458-22.892 29.67v16.241h29.35z" mask="url(#b)"/>
        <path fill="#3FA2F7" d="M304.733 175.764h-32.107V114.47c0-7.102 5.768-12.86 12.884-12.86 7.116 0 12.885 5.758 12.885 12.86v55.096c-.039 2.874 1.971 6.198 6.338 6.198" mask="url(#b)"/>
        <path fill="#3FA2F7" d="M273.417 174.974h26.626a6.991 6.991 0 0 1-.461-.424c-1.282-1.299-2.005-3.119-1.98-4.994V114.47c0-6.654-5.423-12.069-12.092-12.069-6.668 0-12.093 5.415-12.093 12.07v60.503zm31.315 1.58h-32.9V114.47c0-7.527 6.136-13.65 13.678-13.65 7.542 0 13.677 6.123 13.677 13.65v55.096c-.02 1.444.55 2.889 1.523 3.873.992 1.004 2.384 1.535 4.022 1.535v1.58z" mask="url(#b)"/>
        <path fill="#3FA2F7" d="M291.327 151.417v-16.174c0-13.831-11.34-25.148-25.2-25.148h-4.515c-13.86 0-25.2 11.317-25.2 25.148v16.174h54.915z" mask="url(#b)"/>
        <path fill="#3FA2F7" d="M237.205 150.627h53.33v-15.384c0-13.43-10.95-24.357-24.408-24.357h-4.515c-13.459 0-24.407 10.926-24.407 24.357v15.384zm54.914 1.58H235.62v-16.964c0-14.302 11.66-25.939 25.992-25.939h4.515c14.332 0 25.992 11.637 25.992 25.94v16.964z" mask="url(#b)"/>
        <path fill="#E8F3FD" d="M292.336 155.283c0 1.8-1.463 3.261-3.267 3.261a3.264 3.264 0 0 1-3.268-3.261v-3.163a3.263 3.263 0 0 1 3.268-3.26 3.263 3.263 0 0 1 3.267 3.26v3.163z" mask="url(#b)"/>
        <path fill="#3FA2F7" d="M289.07 149.65a2.477 2.477 0 0 0-2.476 2.47v3.163a2.476 2.476 0 0 0 4.95 0v-3.162c0-1.362-1.11-2.471-2.474-2.471m0 9.685a4.061 4.061 0 0 1-4.06-4.052v-3.162a4.06 4.06 0 0 1 8.12 0l-.001 3.162a4.06 4.06 0 0 1-4.06 4.052" mask="url(#b)"/>
        <path fill="#E8F3FD" d="M241.638 155.283c0 1.8-1.463 3.261-3.267 3.261a3.264 3.264 0 0 1-3.268-3.261v-3.163a3.263 3.263 0 0 1 3.268-3.26 3.263 3.263 0 0 1 3.267 3.26v3.163z" mask="url(#b)"/>
        <path fill="#3FA2F7" d="M238.371 149.65a2.477 2.477 0 0 0-2.476 2.47v3.163a2.476 2.476 0 0 0 4.95 0v-3.162c0-1.362-1.11-2.471-2.474-2.471m0 9.685a4.061 4.061 0 0 1-4.06-4.052v-3.162a4.06 4.06 0 0 1 8.12 0v3.162a4.06 4.06 0 0 1-4.06 4.052M294.37 230.517v-16.24c0-16.446-13.483-29.901-29.961-29.901-16.48 0-29.963 13.455-29.963 29.9v16.241h59.924z" mask="url(#b)"/>
        <path fill="#FFF" d="M264.408 184.375c-16.48 0-29.963 13.457-29.963 29.901v6.533c0-16.445 13.483-29.902 29.963-29.902s29.962 13.457 29.962 29.902v-6.533c0-16.444-13.482-29.9-29.962-29.9" mask="url(#b)"/>
        <path fill="#3FA2F7" d="M295.163 230.517h-1.585v-16.24c0-16.053-13.085-29.11-29.17-29.11s-29.17 13.057-29.17 29.11v16.24h-1.584v-16.24c0-16.925 13.796-30.692 30.755-30.692 16.957 0 30.754 13.767 30.754 30.692v16.24z" mask="url(#b)"/>
        <path fill="#3FA2F7" d="M249.18 230.517h1.585v-18.316h-1.585zM279.758 230.517h1.584v-18.316h-1.584z" mask="url(#b)"/>
        <path fill="#FFF" d="M265.69 196.464h-3.641a4.706 4.706 0 0 1-4.711-4.702v-17.403a4.706 4.706 0 0 1 4.71-4.702h3.641a4.707 4.707 0 0 1 4.712 4.702v17.403a4.707 4.707 0 0 1-4.712 4.702" mask="url(#b)"/>
        <path fill="#3FA2F7" d="M262.048 170.448a3.92 3.92 0 0 0-3.918 3.911v17.404a3.919 3.919 0 0 0 3.918 3.91h3.641a3.92 3.92 0 0 0 3.92-3.91v-17.404a3.92 3.92 0 0 0-3.92-3.911h-3.64zm3.641 26.807h-3.64c-3.035 0-5.503-2.463-5.503-5.492V174.36c0-3.028 2.468-5.493 5.502-5.493h3.641c3.035 0 5.504 2.465 5.504 5.493v17.403c0 3.029-2.47 5.493-5.504 5.493z" mask="url(#b)"/>
        <path fill="#FFF" d="M289.07 141.229v16.513c0 13.832-11.34 25.148-25.2 25.148s-25.201-11.316-25.201-25.148v-16.513c12.466 0 22.25-10.546 24.978-13.808a1 1 0 0 1 1.532-.004c2.756 3.257 12.559 13.812 23.89 13.812" mask="url(#b)"/>
        <path fill="#FFF" d="M265.179 127.417a1 1 0 0 0-1.533.005 44.833 44.833 0 0 1-1.868 2.086c4.104 4.32 12.52 11.721 22.01 11.721v16.513c0 12.942-9.928 23.68-22.56 25.01.869.09 1.75.139 2.641.139 13.86 0 25.2-11.317 25.2-25.149V141.23c-11.33 0-21.134-10.554-23.89-13.812" mask="url(#b)"/>
        <path fill="#3FA2F7" d="M239.461 142.006v15.736c0 13.431 10.95 24.358 24.408 24.358 13.459 0 24.409-10.927 24.409-24.358v-15.74c-11.325-.468-20.97-10.844-23.705-14.074-.052-.064-.154-.062-.16-.075a.2.2 0 0 0-.158.075c-2.708 3.238-12.368 13.648-24.794 14.078m24.408 41.675c-14.332 0-25.992-11.636-25.992-25.939v-17.304h.792c12.118 0 21.716-10.35 24.368-13.523.341-.407.841-.643 1.371-.644h.007c.528 0 1.027.232 1.37.637 2.685 3.173 12.302 13.53 23.285 13.53h.792v17.304c0 14.303-11.66 25.94-25.993 25.94" mask="url(#b)"/>
        <path fill="#3FA2F7" d="M265.12 162.039h-1.907v-1.582h1.906c.573 0 1.038-.464 1.038-1.037v-.168c0-.573-.465-1.038-1.038-1.038h-1.235v-6.007h1.585v4.45a2.622 2.622 0 0 1 2.273 2.595v.168a2.623 2.623 0 0 1-2.623 2.619" mask="url(#b)"/>
        <path fill="#FFF" d="M270.401 167.518c0 3.6-2.924 6.52-6.532 6.52-3.607 0-6.531-2.92-6.531-6.52H270.4z" mask="url(#b)"/>
        <path fill="#3FA2F7" d="M258.184 168.309a5.744 5.744 0 0 0 5.685 4.938 5.746 5.746 0 0 0 5.686-4.938h-11.37zm5.685 6.52c-4.038 0-7.324-3.28-7.324-7.311v-.79h14.648v.79c0 4.03-3.285 7.31-7.324 7.31zM254.431 149.605c0 1.04-.845 1.883-1.887 1.883a1.886 1.886 0 0 1-1.889-1.883 1.887 1.887 0 0 1 3.776 0M277.083 149.605c0 1.04-.845 1.883-1.887 1.883a1.885 1.885 0 0 1-1.888-1.883c0-1.04.845-1.885 1.888-1.885 1.042 0 1.887.844 1.887 1.885M248.19 146.72l-.418-1.525 7.727-2.108.418 1.525zM279.792 146.72l-7.727-2.108.419-1.525 7.726 2.108z" mask="url(#b)"/>
        <path fill="#E8F3FD" d="M279.646 115.416l-10.97-4.487a2.114 2.114 0 0 1-1.155-2.75l.469-1.14a2.119 2.119 0 0 1 2.755-1.151l10.971 4.487a2.113 2.113 0 0 1 1.154 2.75l-.47 1.14a2.119 2.119 0 0 1-2.754 1.15" mask="url(#b)"/>
        <path fill="#3FA2F7" d="M279.946 114.685a1.32 1.32 0 0 0 1.01-.007c.327-.136.58-.39.712-.713l.468-1.14a1.318 1.318 0 0 0-.72-1.719l-10.97-4.487a1.305 1.305 0 0 0-1.01.006c-.327.136-.58.39-.713.713l-.468 1.14a1.319 1.319 0 0 0 .72 1.72l10.971 4.487zm.497 1.68c-.373 0-.744-.074-1.097-.217l-10.97-4.488a2.9 2.9 0 0 1-1.588-3.781l.468-1.14a2.887 2.887 0 0 1 1.567-1.572 2.895 2.895 0 0 1 2.223-.011l10.97 4.488a2.901 2.901 0 0 1 1.587 3.781l-.468 1.14a2.887 2.887 0 0 1-1.567 1.571 2.914 2.914 0 0 1-1.125.228z" mask="url(#b)"/>
        <path fill="#FFF" d="M270.867 230.517h64.012v-13.263h-64.012z" mask="url(#b)"/>
        <path fill="#FFF" d="M270.867 223.157h64.012v-5.903h-64.012z" mask="url(#b)"/>
        <path fill="#3FA2F7" d="M281.845 221.329h1.584v-4.075h-1.584zM273.682 221.329h1.584v-4.075h-1.584zM290.01 221.329h1.585v-4.075h-1.584zM298.174 221.329h1.585v-4.075h-1.585zM306.339 221.329h1.584v-4.075h-1.584zM322.668 221.329h1.584v-4.075h-1.584z" mask="url(#b)"/>
        <path fill="#FFF" d="M314.503 221.329h1.585v-4.075h-1.585z" mask="url(#b)"/>
        <path fill="#3FA2F7" d="M330.832 221.329h1.584v-4.075h-1.584z" mask="url(#b)"/>
        <path fill="#3FA2F7" d="M271.801 218.044a.143.143 0 0 0-.143.142v11.397c0 .08.065.144.143.144h62.143c.079 0 .143-.065.143-.144v-11.397a.143.143 0 0 0-.143-.142H271.8zm62.143 13.264H271.8a1.727 1.727 0 0 1-1.727-1.725v-11.397c0-.95.775-1.723 1.727-1.723h62.143c.952 0 1.728.773 1.728 1.723v11.397c0 .952-.776 1.725-1.728 1.725zM186.303 87.632c-5.164-11.81-1.734-33.468-1.734-33.468 0-17.081-13.874-30.926-30.991-30.926-17.116 0-30.99 13.845-30.99 30.926 0 0 4.124 21.382-1.489 33.396-1.338 2.863.173 6.23 3.245 6.994l30.03 7.464 28.668-7.446c3.023-.785 4.51-4.083 3.26-6.94" mask="url(#b)"/>
        <path fill="#3FA2F7" d="M127.104 94.554c-3.072-.764-4.583-4.131-3.246-6.994 5.614-12.015 1.49-33.396 1.49-33.396 0-16.618 13.134-30.17 29.61-30.893-.459-.02-.918-.034-1.381-.034-17.115 0-30.99 13.847-30.99 30.927 0 0 4.124 21.381-1.489 33.396-1.337 2.863.174 6.23 3.246 6.994l30.03 7.465 1.35-.351-28.62-7.114z" mask="url(#b)"/>
        <path fill="#3FA2F7" d="M123.38 54.09c.3 1.59 3.843 21.172-1.26 33.127a4.988 4.988 0 0 0 .121 4.193 5 5 0 0 0 3.272 2.62l28.856 7.172 28.17-7.316a4.522 4.522 0 0 0 2.93-2.395c.562-1.153.595-2.423.093-3.578-5.088-11.688-2.024-32.27-1.784-33.81-.034-16.59-13.569-30.076-30.2-30.076-16.627 0-30.158 13.479-30.198 30.063zm30.998 48.744l-29.248-7.27a6.58 6.58 0 0 1-4.307-3.45 6.564 6.564 0 0 1-.16-5.517c5.018-11.754 1.186-32.08 1.147-32.284l-.015-.15c0-17.488 14.258-31.717 31.782-31.717 17.526 0 31.785 14.23 31.785 31.718l-.01.123c-.033.214-3.328 21.53 1.663 32.996a5.838 5.838 0 0 1-.123 4.9 6.097 6.097 0 0 1-3.953 3.232l-28.561 7.419z" mask="url(#b)"/>
        <path fill="#3FA2F7" d="M183.905 230.517V125.734c0-16.446-13.483-29.903-29.962-29.903s-29.963 13.457-29.963 29.903v104.783h59.925z" mask="url(#b)"/>
        <path fill="#3FA2F7" d="M138.716 230.517h1.584V123.658h-1.584zM169.292 230.517h1.584V123.658h-1.584z" mask="url(#b)"/>
        <path fill="#FFF" d="M142.362 112.741l1.693 1.058a19.19 19.19 0 0 0 20.928-.397 13.594 13.594 0 0 0 5.967-11.249v-.994a29.78 29.78 0 0 0-17.007-5.327 29.783 29.783 0 0 0-17.008 5.327v1.808c0 3.974 2.05 7.667 5.427 9.774" mask="url(#b)"/>
        <path fill="#3FA2F7" d="M154.213 117.497c-3.668 0-7.34-1.006-10.579-3.028l-1.693-1.056a12.247 12.247 0 0 1-5.799-10.446v-1.75h1.585v1.75c0 3.726 1.89 7.13 5.055 9.106l1.693 1.055a18.408 18.408 0 0 0 20.063-.38 12.794 12.794 0 0 0 5.621-10.595v-1.033h1.584v1.033c0 4.772-2.36 9.221-6.315 11.903a19.967 19.967 0 0 1-11.215 3.441" mask="url(#b)"/>
        <path fill="#3FA2F7" d="M153.855 117.509h1.585v-5.2h-1.585z" mask="url(#b)"/>
        <path fill="#3FA2F7" d="M184.697 230.517h-1.584V125.734c0-16.053-13.086-29.112-29.17-29.112-16.085 0-29.17 13.059-29.17 29.112v104.783h-1.585V125.734c0-16.925 13.797-30.693 30.755-30.693s30.754 13.768 30.754 30.693v104.783z" mask="url(#b)"/>
        <path fill="#FFF" d="M155.764 103.64h-3.642a4.706 4.706 0 0 1-4.711-4.701V81.535a4.707 4.707 0 0 1 4.712-4.702h3.64a4.706 4.706 0 0 1 4.711 4.702v17.403a4.706 4.706 0 0 1-4.71 4.702" mask="url(#b)"/>
        <path fill="#3FA2F7" d="M148.203 98.938h-1.584V81.534c0-3.028 2.468-5.492 5.504-5.492h3.64c3.035 0 5.504 2.464 5.504 5.492v17.404h-1.584V81.534a3.92 3.92 0 0 0-3.92-3.911h-3.64a3.92 3.92 0 0 0-3.92 3.911v17.404z" mask="url(#b)"/>
        <path fill="#FFF" d="M134.966 65.589a4.581 4.581 0 0 1-4.585 4.575 4.581 4.581 0 0 1-4.586-4.575 4.582 4.582 0 0 1 4.586-4.577 4.581 4.581 0 0 1 4.585 4.577" mask="url(#b)"/>
        <path fill="#3FA2F7" d="M130.38 61.026a3.795 3.795 0 0 0-3.794 3.787 3.794 3.794 0 0 0 7.587 0 3.794 3.794 0 0 0-3.793-3.787m0 9.154c-2.966 0-5.378-2.409-5.378-5.367 0-2.96 2.412-5.368 5.378-5.368 2.965 0 5.378 2.408 5.378 5.368 0 2.958-2.413 5.367-5.378 5.367" mask="url(#b)"/>
        <path fill="#FFF" d="M183.548 65.589a4.581 4.581 0 0 1-4.586 4.575 4.581 4.581 0 0 1-4.586-4.575 4.582 4.582 0 0 1 4.586-4.577 4.582 4.582 0 0 1 4.586 4.577" mask="url(#b)"/>
        <path fill="#3FA2F7" d="M178.962 61.026a3.795 3.795 0 0 0-3.794 3.787 3.795 3.795 0 0 0 3.794 3.786c2.092 0 3.794-1.7 3.794-3.786a3.795 3.795 0 0 0-3.794-3.787m0 9.154c-2.966 0-5.378-2.409-5.378-5.367 0-2.96 2.412-5.368 5.378-5.368s5.379 2.408 5.379 5.368c0 2.958-2.413 5.367-5.379 5.367" mask="url(#b)"/>
        <path fill="#FFF" d="M145.877 41.95c-8.85 0-16.023 7.16-16.023 15.992v9.794c0 13.6 11.048 24.628 24.674 24.628 13.632 0 24.676-11.027 24.676-24.628V57.399c0-8.896-6.271-15.448-7.198-15.448h-26.129z" mask="url(#b)"/>
        <path fill="#FFF" d="M172.007 41.95h-2.946c2.125 2.617 4.862 7.46 4.862 13.34v10.338c0 13.6-11.045 24.627-24.676 24.627-2.242 0-4.414-.303-6.479-.864a24.591 24.591 0 0 0 11.76 2.973c13.63 0 24.676-11.027 24.676-24.628V57.399c0-8.896-6.271-15.448-7.197-15.448" mask="url(#b)"/>
        <path fill="#3FA2F7" d="M144.778 42.741c-7.792 0-14.132 6.327-14.132 14.105v10.89c0 13.144 10.714 23.837 23.882 23.837 13.17 0 23.884-10.693 23.884-23.837v-8.074c.06-6.331-1.18-10.684-3.792-13.316-3.144-3.167-8.185-3.605-13.162-3.605h-16.68zm9.75 50.413c-14.042 0-25.466-11.402-25.466-25.418v-10.89c0-8.65 7.05-15.686 15.716-15.686h16.68c5.32 0 10.735.494 14.288 4.074 2.924 2.947 4.314 7.668 4.25 14.436v8.066c0 14.016-11.425 25.418-25.468 25.418z" mask="url(#b)"/>
        <path fill="#3FA2F7" d="M153.177 87.18h3.394V85.6h-3.394zM132.942 38.898s24.866 19.87 47.312 11.703v-8.626l-16.926-10.65-27.29 1.829-3.096 5.744z" mask="url(#b)"/>
        <path fill="#FEF6D8" d="M133.27 37.371l-.328.61.08.06.248-.67z" mask="url(#b)"/>
        <path fill="#3FA2F7" d="M135.181 39.617c5.968 4.148 23.002 14.556 39.865 11.474 3.112-.569 5.552-2.997 6.22-6.083-17.268 8.278-39.247-1.896-46.085-5.391M141.927 44.461s-1.989 10.917-14.166 10.917l-1.228-5.305 4.856-12.137 10.538 6.525z" mask="url(#b)"/>
        <path fill="#3FA2F7" d="M127.76 56.17v-1.582c11.349 0 13.31-9.85 13.387-10.27l1.56.285c-.022.116-2.255 11.566-14.946 11.566" mask="url(#b)"/>
        <path fill="#3FA2F7" d="M169.279 53.04c-18.603 0-35.68-12.672-35.888-12.829l.954-1.262c.247.186 24.877 18.446 46.65 10.526l.542 1.485c-4.051 1.473-8.192 2.08-12.258 2.08M166.227 62.749h-1.584a2.13 2.13 0 0 0-4.26 0H158.8a3.714 3.714 0 0 1 7.427 0M150.065 62.749h-1.584a2.13 2.13 0 0 0-4.259 0h-1.584a3.714 3.714 0 0 1 7.427 0" mask="url(#b)"/>
        <path fill="#FFF" d="M161.507 77.209c0 3.655-2.97 6.618-6.633 6.618s-6.632-2.963-6.632-6.618h13.265z" mask="url(#b)"/>
        <path fill="#3FA2F7" d="M149.087 78a5.845 5.845 0 0 0 5.787 5.037 5.847 5.847 0 0 0 5.788-5.038h-11.575zm5.787 6.618c-4.093 0-7.425-3.324-7.425-7.41v-.79h14.85v.79c0 4.086-3.33 7.41-7.425 7.41zM155.067 72.288h-1.39v-1.581h1.39a.886.886 0 0 0 .886-.885.886.886 0 0 0-.886-.884h-.986v-5.136h1.585v3.628a2.472 2.472 0 0 1 1.871 2.392 2.47 2.47 0 0 1-2.47 2.466" mask="url(#b)"/>
        <path fill="#FFF" d="M139.895 230.517v-19.402c0-16.446-13.483-29.902-29.962-29.902-16.48 0-29.963 13.456-29.963 29.902v19.402h59.925z" mask="url(#b)"/>
        <path fill="#3FA2F7" d="M140.687 230.517h-1.584v-19.402c0-16.053-13.086-29.111-29.17-29.111-16.085 0-29.17 13.058-29.17 29.11v19.403h-1.585v-19.402c0-16.925 13.797-30.692 30.755-30.692s30.754 13.767 30.754 30.692v19.402z" mask="url(#b)"/>
        <path fill="#3FA2F7" d="M94.706 230.517h1.584V209.04h-1.584zM125.283 230.517h1.584V209.04h-1.584z" mask="url(#b)"/>
        <path fill="#FFF" d="M111.215 193.302h-3.641a4.707 4.707 0 0 1-4.712-4.702v-17.403a4.707 4.707 0 0 1 4.712-4.703h3.64a4.707 4.707 0 0 1 4.712 4.703V188.6a4.707 4.707 0 0 1-4.711 4.702" mask="url(#b)"/>
        <path fill="#3FA2F7" d="M107.574 167.285a3.92 3.92 0 0 0-3.919 3.912v17.404a3.919 3.919 0 0 0 3.919 3.91h3.64a3.92 3.92 0 0 0 3.92-3.911v-17.403a3.92 3.92 0 0 0-3.92-3.912h-3.64zm3.64 26.808h-3.64c-3.035 0-5.503-2.464-5.503-5.492v-17.404c0-3.028 2.468-5.493 5.503-5.493h3.64c3.036 0 5.504 2.465 5.504 5.493V188.6c0 3.028-2.468 5.493-5.504 5.493z" mask="url(#b)"/>
        <path fill="#FFF" d="M136.136 148.796a3.073 3.073 0 0 1-3.074 3.069 3.072 3.072 0 0 1-3.075-3.07v-2.975a3.07 3.07 0 0 1 3.075-3.07 3.072 3.072 0 0 1 3.074 3.07v2.976z" mask="url(#b)"/>
        <path fill="#3FA2F7" d="M133.062 143.54a2.285 2.285 0 0 0-2.283 2.28v2.975a2.283 2.283 0 0 0 4.565 0v-2.975a2.285 2.285 0 0 0-2.282-2.28m0 9.115a3.867 3.867 0 0 1-3.867-3.86v-2.975a3.869 3.869 0 0 1 3.867-3.862 3.869 3.869 0 0 1 3.866 3.862v2.975c0 2.13-1.734 3.86-3.866 3.86" mask="url(#b)"/>
        <path fill="#FFF" d="M88.417 148.796a3.073 3.073 0 0 1-3.075 3.069 3.071 3.071 0 0 1-3.075-3.07v-2.975a3.07 3.07 0 0 1 3.075-3.07 3.072 3.072 0 0 1 3.075 3.07v2.976z" mask="url(#b)"/>
        <path fill="#3FA2F7" d="M85.342 143.54a2.285 2.285 0 0 0-2.283 2.28v2.975a2.283 2.283 0 0 0 4.565 0v-2.975a2.285 2.285 0 0 0-2.282-2.28m0 9.115a3.867 3.867 0 0 1-3.867-3.86v-2.975a3.869 3.869 0 0 1 3.867-3.862 3.869 3.869 0 0 1 3.867 3.862v2.975c0 2.13-1.735 3.86-3.867 3.86" mask="url(#b)"/>
        <path fill="#3FA2F7" d="M109.19 188.664c-13.1 0-23.818-10.696-23.818-23.77v-27.298c0-13.074 10.718-23.77 23.818-23.77 13.1 0 23.818 10.696 23.818 23.77v27.298c0 13.074-10.719 23.77-23.818 23.77" mask="url(#b)"/>
        <path fill="#3FA2F7" d="M121.226 117.113c4.642 4.344 7.556 10.508 7.556 17.321v27.298c0 13.072-10.717 23.77-23.818 23.77a23.65 23.65 0 0 1-12.035-3.287c4.265 3.992 9.989 6.449 16.26 6.449 13.1 0 23.818-10.697 23.818-23.77v-27.298c0-8.698-4.748-16.34-11.781-20.483" mask="url(#b)"/>
        <path fill="#3FA2F7" d="M109.19 114.617c-12.697 0-23.026 10.308-23.026 22.98v27.297c0 12.67 10.329 22.979 23.026 22.979s23.025-10.308 23.025-22.98v-27.297c0-12.671-10.328-22.979-23.025-22.979m0 74.837c-13.57 0-24.61-11.017-24.61-24.56v-27.298c0-13.543 11.04-24.56 24.61-24.56s24.61 11.017 24.61 24.56v27.298c0 13.543-11.04 24.56-24.61 24.56" mask="url(#b)"/>
        <path fill="#FFF" d="M109.19 157.831c-10.892 0-21.791 8.502-21.791-2.367v-13.92c0-10.87-1.03-21.747 9.86-21.747h21.872c10.892 0 11.85 10.877 11.85 21.747v13.92c0 10.869-10.9 2.367-21.791 2.367M116.159 164.891c0 3.842-3.12 6.956-6.969 6.956-3.85 0-6.97-3.114-6.97-6.956h13.939z" mask="url(#b)"/>
        <path fill="#3FA2F7" d="M103.063 165.682a6.183 6.183 0 0 0 6.127 5.374 6.183 6.183 0 0 0 6.126-5.374h-12.253zm6.127 6.956c-4.28 0-7.762-3.476-7.762-7.747v-.79h15.523v.79c0 4.271-3.481 7.747-7.76 7.747zM94.84 144.431l-.21-1.566 7.89-1.054.21 1.566zM123.645 144.431l-7.891-1.054.21-1.566 7.891 1.054zM101.734 147.359a1.997 1.997 0 0 1-1.998 1.995 1.997 1.997 0 0 1-1.998-1.995c0-1.102.894-1.995 1.998-1.995s1.998.893 1.998 1.995M112.981 156.91h-5.304v-1.58h3.72v-1.089a.931.931 0 0 0-.932-.93h-2.202v-7.81h1.584v6.23h.618a2.515 2.515 0 0 1 2.516 2.51v2.67z" mask="url(#b)"/>
        <path fill="#3FA2F7" d="M85.13 146.954c-3.193 0-5.782-2.584-5.782-5.771V127.31c0-4.774 3.88-8.646 8.664-8.646 0-3.923 3.186-7.102 7.117-7.102h35.118c4.754 0 8.607 3.845 8.607 8.589v20.824c0 3.085-2.607 5.531-5.69 5.342v-13.752s-3.967 6.463-16.453 6.45c-15.09-.02-24.897-7.455-24.897-7.455s-.926 2.046-2.947 3.83c-1.856 1.642-3.737 1.061-3.737 1.061v10.503z" mask="url(#b)"/>
        <path fill="#3FA2F7" d="M85.13 146.954V136.45s1.88.58 3.737-1.06c2.02-1.785 2.947-3.83 2.947-3.83s19.834 10.382 31.634 6.548c-12.832-5.506-29.461-8.851-32.222-25.381a7.088 7.088 0 0 0-3.214 5.936c-4.785 0-8.664 3.872-8.664 8.646v13.873c0 3.187 2.59 5.77 5.782 5.77" mask="url(#b)"/>
        <path fill="#3FA2F7" d="M85.923 147.745h-.793c-3.625 0-6.575-2.944-6.575-6.562V127.31c0-4.949 3.839-9.02 8.7-9.407.385-3.997 3.77-7.132 7.874-7.132h35.118c5.183 0 9.4 4.208 9.4 9.38v20.824a6.079 6.079 0 0 1-1.939 4.475 6.137 6.137 0 0 1-4.593 1.657l-.744-.047v-14.495h1.584v12.95a4.52 4.52 0 0 0 2.667-1.217 4.512 4.512 0 0 0 1.44-3.323v-20.824c0-4.301-3.506-7.799-7.815-7.799H95.129c-3.488 0-6.325 2.83-6.325 6.312v.79h-.792c-4.34 0-7.872 3.525-7.872 7.856v13.873c0 2.477 1.822 4.538 4.198 4.917V135.38l1.027.316c.053.017 1.5.41 2.977-.896 1.872-1.655 2.741-3.546 2.75-3.564l1.444.65c-.04.091-1.02 2.222-3.144 4.098-1.286 1.137-2.609 1.376-3.47 1.357v10.405z" mask="url(#b)"/>
        <path fill="#3FA2F7" d="M116.743 139.805h-.032c-15.177-.02-28.205-9.508-28.75-9.912l.94-1.27c.13.095 13.167 9.583 27.812 9.6h.03c11.9 0 17.408-8.119 17.462-8.201l1.322.87c-.24.365-6.042 8.913-18.784 8.913M122.333 149.353h-1.584a2.105 2.105 0 0 0-4.21 0h-1.585a3.69 3.69 0 0 1 7.379 0" mask="url(#b)"/>
        <path fill="#E78967" d="M222.62 210.36v-8.862c0-16.446-13.483-29.901-29.962-29.901-16.48 0-29.963 13.455-29.963 29.901v8.862h59.925z" mask="url(#b)"/>
        <path fill="#ECA185" d="M192.658 171.596c-16.48 0-29.963 13.457-29.963 29.902v6.532c0-16.445 13.482-29.901 29.963-29.901 16.48 0 29.961 13.456 29.961 29.9v-6.531c0-16.445-13.481-29.902-29.961-29.902" mask="url(#b)"/>
        <path fill="#3FA2F7" d="M223.412 210.36h-1.585v-8.862c0-16.053-13.085-29.11-29.17-29.11-16.084 0-29.17 13.057-29.17 29.11v8.862h-1.584v-8.862c0-16.924 13.796-30.692 30.755-30.692 16.957 0 30.754 13.768 30.754 30.692v8.862z" mask="url(#b)"/>
        <path fill="#3FA2F7" d="M177.43 210.36h1.585v-10.937h-1.585zM208.007 210.36h1.584v-10.937h-1.584z" mask="url(#b)"/>
        <path fill="#FFF" d="M193.94 183.685h-3.642a4.706 4.706 0 0 1-4.71-4.7V161.58a4.707 4.707 0 0 1 4.711-4.702h3.64a4.706 4.706 0 0 1 4.711 4.702v17.404a4.706 4.706 0 0 1-4.71 4.701" mask="url(#b)"/>
        <path fill="#3FA2F7" d="M190.299 157.669a3.92 3.92 0 0 0-3.92 3.912v17.404a3.92 3.92 0 0 0 3.92 3.91h3.64a3.92 3.92 0 0 0 3.919-3.911V161.58a3.92 3.92 0 0 0-3.919-3.912h-3.64zm3.64 26.807h-3.64c-3.036 0-5.504-2.463-5.504-5.491V161.58c0-3.029 2.468-5.493 5.504-5.493h3.64c3.035 0 5.503 2.464 5.503 5.493v17.403c0 3.028-2.468 5.492-5.503 5.492z" mask="url(#b)"/>
        <path fill="#FFF" d="M168.427 141.148c0 1.8-1.463 3.263-3.267 3.263a3.264 3.264 0 0 1-3.267-3.263v-3.161a3.263 3.263 0 0 1 3.267-3.262 3.264 3.264 0 0 1 3.267 3.262v3.161z" mask="url(#b)"/>
        <path fill="#3FA2F7" d="M165.16 135.516a2.476 2.476 0 0 0-2.474 2.471v3.162a2.475 2.475 0 0 0 4.949 0v-3.162a2.476 2.476 0 0 0-2.475-2.471m0 9.684a4.06 4.06 0 0 1-4.059-4.051v-3.162a4.06 4.06 0 0 1 4.06-4.053 4.06 4.06 0 0 1 4.058 4.053v3.162a4.06 4.06 0 0 1-4.059 4.051M219.058 135.516a2.478 2.478 0 0 0-2.478 2.471v3.162a2.477 2.477 0 0 0 2.478 2.47 2.477 2.477 0 0 0 2.48-2.47v-3.162a2.479 2.479 0 0 0-2.48-2.471m0 9.684a4.063 4.063 0 0 1-4.062-4.051v-3.162a4.063 4.063 0 0 1 4.062-4.053 4.063 4.063 0 0 1 4.064 4.053v3.162a4.063 4.063 0 0 1-4.064 4.051" mask="url(#b)"/>
        <path fill="#FFF" d="M217.09 117.75v26.4c0 13.924-11.308 25.21-25.267 25.21-13.948 0-25.263-11.286-25.263-25.21v-26.4h50.53z" mask="url(#b)"/>
        <path fill="#FFF" d="M209.236 117.75v25.094c0 13.923-11.309 25.21-25.268 25.21-.05 0-.1-.007-.15-.008a25.206 25.206 0 0 0 8.006 1.315c13.957 0 25.267-11.287 25.267-25.21v-26.402h-7.855z" mask="url(#b)"/>
        <path fill="#3FA2F7" d="M167.353 118.54v25.61c0 13.465 10.977 24.42 24.47 24.42 13.496 0 24.476-10.955 24.476-24.42v-25.61h-48.946zm24.47 51.611c-14.367 0-26.055-11.664-26.055-26v-27.192h52.115v27.191c0 14.337-11.691 26.001-26.06 26.001z" mask="url(#b)"/>
        <path fill="#FFF" d="M226.158 100.63v10.667c0 5.67-4.605 10.267-10.29 10.267h-40.933a5.142 5.142 0 0 0-5.143 5.137v6.724c0 .564-.46 1.026-1.03 1.026h-5.122a1.03 1.03 0 0 1-1.028-1.026v-19.511c1.616-4.83 7.18-3.015 7.18-3.015 0-5.67 4.61-10.27 10.289-10.27h46.077z" mask="url(#b)"/>
        <path fill="#FFF" d="M214.784 117.351c6.15 0 11.138-4.978 11.138-11.113v-5.609h-45.84c-5.68 0-10.29 4.6-10.29 10.27 0 0-5.564-1.815-7.18 3.015v20.021h2.245c.614 0 1.114-.495 1.114-1.112v-9.914c0-3.07 2.498-5.558 5.568-5.558h43.245z" mask="url(#b)"/>
        <path fill="#3FA2F7" d="M163.404 114.047v19.378c0 .128.108.235.236.235h5.122a.237.237 0 0 0 .238-.235v-6.724c0-3.269 2.663-5.927 5.935-5.927h40.934c5.237 0 9.496-4.251 9.496-9.477v-9.877h-45.283c-5.237 0-9.498 4.252-9.498 9.48v1.084l-1.037-.332c-.195-.063-4.749-1.477-6.143 2.395m5.358 21.194h-5.122a1.82 1.82 0 0 1-1.82-1.816l.041-19.76c1.277-3.819 4.834-4.193 7.183-3.766.508-5.632 5.265-10.06 11.038-10.06h46.868v11.458c0 6.097-4.971 11.058-11.081 11.058h-40.934a4.353 4.353 0 0 0-4.35 4.346v6.724a1.821 1.821 0 0 1-1.823 1.816M193.368 150.327h-2.962v-1.58h2.962c.573 0 1.038-.466 1.038-1.037v-.17c0-.571-.465-1.036-1.038-1.036h-2.29v-6.008h1.585v4.427h.705a2.623 2.623 0 0 1 2.623 2.617v.17a2.623 2.623 0 0 1-2.623 2.617" mask="url(#b)"/>
        <path fill="#3FA2F7" d="M178.19 133.572h8.383v-1.581h-8.383zM198.278 133.572h8.383v-1.581h-8.383zM184.504 136.725c0 1.17-.95 2.12-2.123 2.12a2.122 2.122 0 0 1-2.124-2.12c0-1.17.95-2.119 2.124-2.119 1.173 0 2.123.949 2.123 2.119M204.592 136.725a2.123 2.123 0 1 1-4.247 0c0-1.17.951-2.119 2.124-2.119a2.12 2.12 0 0 1 2.123 2.119" mask="url(#b)"/>
        <path fill="#FFF" d="M198.65 155.808c0 3.6-2.924 6.518-6.531 6.518-3.607 0-6.532-2.919-6.532-6.518h13.063z" mask="url(#b)"/>
        <path fill="#3FA2F7" d="M186.434 156.598a5.743 5.743 0 0 0 5.684 4.938 5.745 5.745 0 0 0 5.686-4.938h-11.37zm5.684 6.519c-4.038 0-7.324-3.28-7.324-7.31v-.79h14.648v.79c0 4.03-3.285 7.31-7.324 7.31zM189.618 166.02h5.002v-1.581h-5.002z" mask="url(#b)"/>
        <path fill="#FFF" d="M115.84 230.517h36.782v-10.483H115.84z" mask="url(#b)"/>
        <path fill="#3FA2F7" d="M116.632 229.727h35.198v-8.902h-35.198v8.902zm-1.584 1.58h38.366v-12.063h-38.366v12.064z" mask="url(#b)"/>
        <path fill="#FFF" d="M102.598 230.517a2.29 2.29 0 0 1-2.286-2.28v-3.199a2.29 2.29 0 0 1 2.286-2.281 2.29 2.29 0 0 1 2.285 2.281v3.198a2.29 2.29 0 0 1-2.285 2.281" mask="url(#b)"/>
        <path fill="#3FA2F7" d="M102.598 223.547c-.823 0-1.494.67-1.494 1.49v3.199a1.494 1.494 0 0 0 2.987 0v-3.198c0-.821-.67-1.49-1.493-1.49m0 7.76a3.079 3.079 0 0 1-3.078-3.072v-3.198a3.08 3.08 0 0 1 3.078-3.072 3.08 3.08 0 0 1 3.078 3.072v3.198a3.079 3.079 0 0 1-3.078 3.071" mask="url(#b)"/>
        <path fill="#FFF" d="M121.61 230.517a2.29 2.29 0 0 1-2.286-2.28v-3.199a2.29 2.29 0 0 1 2.286-2.281 2.29 2.29 0 0 1 2.285 2.281v3.198a2.29 2.29 0 0 1-2.285 2.281" mask="url(#b)"/>
        <path fill="#3FA2F7" d="M121.61 223.547c-.823 0-1.494.67-1.494 1.49v3.199a1.494 1.494 0 0 0 2.987 0v-3.198c0-.821-.67-1.49-1.493-1.49m0 7.76a3.079 3.079 0 0 1-3.078-3.072v-3.198a3.08 3.08 0 0 1 3.078-3.072 3.08 3.08 0 0 1 3.078 3.072v3.198a3.079 3.079 0 0 1-3.078 3.071" mask="url(#b)"/>
        <path fill="#FFFFFE" d="M121.54 230.517v-3.525c0-5-4.099-9.091-9.11-9.091-5.01 0-9.11 4.092-9.11 9.091v3.525h18.22z" mask="url(#b)"/>
        <path fill="#3FA2F7" d="M104.113 229.727h16.636v-2.735c0-4.577-3.732-8.3-8.318-8.3-4.586 0-8.318 3.723-8.318 8.3v2.735zm18.22 1.58H102.53v-4.315c0-5.448 4.443-9.882 9.902-9.882 5.46 0 9.902 4.434 9.902 9.882v4.316z" mask="url(#b)"/>
        <path fill="#FFF" d="M117.529 225.488a2.521 2.521 0 0 1-2.516-2.512v-3.522a2.52 2.52 0 0 1 2.516-2.51 2.52 2.52 0 0 1 2.516 2.51v3.522a2.52 2.52 0 0 1-2.516 2.512" mask="url(#b)"/>
        <path fill="#3FA2F7" d="M117.529 217.734c-.95 0-1.724.772-1.724 1.72v3.522a1.724 1.724 0 0 0 3.447 0v-3.521c0-.95-.773-1.72-1.723-1.72m0 8.542a3.308 3.308 0 0 1-3.308-3.3v-3.522a3.308 3.308 0 0 1 6.616 0v3.521c0 1.82-1.484 3.3-3.308 3.3" mask="url(#b)"/>
        <path fill="#FFF" d="M111.734 224.285a2.52 2.52 0 0 1-2.516-2.51v-3.522a2.52 2.52 0 0 1 2.516-2.51 2.52 2.52 0 0 1 2.516 2.51v3.521a2.52 2.52 0 0 1-2.516 2.511" mask="url(#b)"/>
        <path fill="#3FA2F7" d="M111.734 216.533c-.95 0-1.724.772-1.724 1.72v3.522a1.724 1.724 0 0 0 3.448 0v-3.522c0-.948-.773-1.72-1.724-1.72m0 8.542a3.308 3.308 0 0 1-3.308-3.3v-3.522a3.308 3.308 0 0 1 6.616 0v3.522c0 1.82-1.484 3.3-3.308 3.3" mask="url(#b)"/>
        <path fill="#FFF" d="M105.94 225.81a2.52 2.52 0 0 1-2.517-2.511v-3.522a2.52 2.52 0 0 1 2.516-2.51 2.52 2.52 0 0 1 2.516 2.51v3.522a2.52 2.52 0 0 1-2.516 2.51" mask="url(#b)"/>
        <path fill="#3FA2F7" d="M105.94 218.057c-.951 0-1.725.771-1.725 1.72v3.523a1.724 1.724 0 0 0 3.448 0v-3.523c0-.949-.773-1.72-1.724-1.72m0 8.543a3.308 3.308 0 0 1-3.308-3.3v-3.523a3.308 3.308 0 0 1 6.616 0v3.523c0 1.819-1.484 3.3-3.308 3.3" mask="url(#b)"/>
        <path fill="#FFF" d="M237.13 230.517h-90.845a7.319 7.319 0 0 1-6.625-4.2l-2.25-4.78h108.593l-2.25 4.78a7.318 7.318 0 0 1-6.624 4.2" mask="url(#b)"/>
        <path fill="#3FA2F7" d="M244.795 222.244l-106.23.084 1.811 3.654a6.556 6.556 0 0 0 5.909 3.745h90.844a6.555 6.555 0 0 0 5.907-3.745l1.76-3.738zm-7.666 9.064h-90.844a8.146 8.146 0 0 1-7.342-4.655l-1.759-3.736a1.511 1.511 0 0 1 .093-1.464 1.52 1.52 0 0 1 1.288-.706h106.283c.525 0 1.006.264 1.287.706.281.442.316.99.093 1.464l-1.758 3.737a8.143 8.143 0 0 1-7.341 4.654z" mask="url(#b)"/>
        <path fill="#FFFFFE" d="M235.118 225.286h-86.823a3.372 3.372 0 0 1-3.374-3.367v-53.425a3.37 3.37 0 0 1 3.374-3.367h86.823a3.37 3.37 0 0 1 3.373 3.367v53.425a3.37 3.37 0 0 1-3.373 3.367" mask="url(#b)"/>
        <path fill="#3FA2F7" d="M148.295 165.917a2.582 2.582 0 0 0-2.581 2.576v53.426a2.581 2.581 0 0 0 2.581 2.576h86.823a2.582 2.582 0 0 0 2.582-2.576v-53.426a2.583 2.583 0 0 0-2.582-2.576h-86.823zm86.823 60.16h-86.823a4.166 4.166 0 0 1-4.165-4.158v-53.426a4.167 4.167 0 0 1 4.165-4.157h86.823a4.167 4.167 0 0 1 4.166 4.157v53.426a4.167 4.167 0 0 1-4.166 4.157z" mask="url(#b)"/>
        <path fill="#3FA2F7" d="M198.968 195.206c0 4.003-3.25 7.247-7.261 7.247-4.01 0-7.262-3.244-7.262-7.247 0-4.002 3.251-7.247 7.262-7.247 4.01 0 7.261 3.245 7.261 7.247M278.596 81.31h2.53v-1.582h-2.53zM282.82 81.31h27.615v-1.582H282.82zM318.464 127.851h2.531v-1.58h-2.53zM322.688 127.852h27.614v-1.58h-27.614zM109.641 17.873h32.287v-1.581H109.64zM21.135 136.461h32.287v-1.581H21.135zM43.842 50.71h32.286v-1.581H43.842zM79.296 50.71h3.842v-1.581h-3.842zM298.803 48.55h32.286v-1.58h-32.286zM333.202 48.55h5.428v-1.582h-5.428zM274.238 81.31h2.366v-1.582h-2.366zM164.388 8.642h2.53v-1.58h-2.53zM135.079 8.642h27.615v-1.58h-27.615zM168.91 8.642h2.366v-1.58h-2.366zM68.527 93.155h2.53v-1.581h-2.53zM72.75 93.155h27.615v-1.581H72.75zM263.669 81.31h5.424v-1.582h-5.424z" mask="url(#b)"/>
        <path fill="#3FA2F7" d="M265.589 83.225h1.584v-5.412h-1.584zM59.985 93.155h5.425v-1.581h-5.425z" mask="url(#b)"/>
        <path fill="#3FA2F7" d="M61.904 95.07h1.584v-5.414h-1.584zM177.542 8.642h5.424v-1.58h-5.424z" mask="url(#b)"/>
        <path fill="#3FA2F7" d="M179.461 10.559h1.585V5.146h-1.585zM85.718 50.71h5.424v-1.581h-5.424z" mask="url(#b)"/>
        <path fill="#3FA2F7" d="M87.639 52.626h1.584v-5.413H87.64zM291.126 48.43l.969.967.969-.967-.969-.966-.969.966zm.969 3.203l-3.209-3.203 3.209-3.202 3.209 3.202-3.209 3.203zM310.587 127.061l.969.967.968-.967-.968-.965-.969.965zm.969 3.203l-3.21-3.203 3.21-3.201 3.208 3.201-3.208 3.203zM60.726 136.725l.969.967.968-.967-.968-.967-.969.967zm.969 3.202l-3.209-3.202 3.209-3.202 3.209 3.202-3.209 3.202zM368.705 217.51l-1.5-.51a185.2 185.2 0 0 0 2.682-8.52l1.523.44c-.34 1.175-.69 2.348-1.053 3.517a181.101 181.101 0 0 1-1.652 5.073M10.188 202.132a182.552 182.552 0 0 1-1.558-6.854l1.551-.321a181.319 181.319 0 0 0 1.545 6.796l-1.538.379zM13.268 231.308h361.514v-1.581H13.268zM378.116 231.308h5.296v-1.581h-5.296zM0 231.308h8.982v-1.581H0z" mask="url(#b)"/>
    </g>
</svg>
